<svg width="715" height="48" viewBox="0 0 715 48" fill="none" xmlns="http://www.w3.org/2000/svg">
<line y1="38.25" x2="670" y2="38.25" stroke="#007777" stroke-width="1.5"/>
<path d="M4.548 3.6C5.316 3.6 5.96 3.792 6.48 4.176C7.008 4.552 7.4 5.06 7.656 5.7C7.92 6.332 8.052 7.032 8.052 7.8C8.052 8.592 7.92 9.304 7.656 9.936C7.4 10.568 7.008 11.072 6.48 11.448C5.96 11.816 5.316 12 4.548 12H1.488C1.384 12 1.296 11.968 1.224 11.904C1.16 11.832 1.128 11.744 1.128 11.64V3.96C1.128 3.856 1.16 3.772 1.224 3.708C1.296 3.636 1.384 3.6 1.488 3.6H4.548ZM4.428 11.292C5.388 11.292 6.104 10.972 6.576 10.332C7.048 9.684 7.284 8.84 7.284 7.8C7.284 7.152 7.184 6.568 6.984 6.048C6.784 5.52 6.468 5.1 6.036 4.788C5.612 4.468 5.076 4.308 4.428 4.308H1.884V11.292H4.428ZM12.441 5.724C12.601 5.724 12.745 5.756 12.873 5.82C13.001 5.884 13.065 5.98 13.065 6.108C13.065 6.22 13.033 6.312 12.969 6.384C12.905 6.448 12.829 6.48 12.741 6.48C12.701 6.48 12.621 6.46 12.501 6.42C12.389 6.38 12.281 6.36 12.177 6.36C11.881 6.36 11.585 6.476 11.289 6.708C11.001 6.932 10.761 7.224 10.569 7.584C10.385 7.944 10.293 8.308 10.293 8.676V11.64C10.293 11.744 10.257 11.832 10.185 11.904C10.121 11.968 10.037 12 9.933 12C9.829 12 9.741 11.968 9.669 11.904C9.605 11.832 9.573 11.744 9.573 11.64V6.264C9.573 6.16 9.605 6.076 9.669 6.012C9.741 5.94 9.829 5.904 9.933 5.904C10.037 5.904 10.121 5.94 10.185 6.012C10.257 6.076 10.293 6.16 10.293 6.264V7.32C10.477 6.864 10.753 6.488 11.121 6.192C11.497 5.888 11.937 5.732 12.441 5.724ZM19.0296 5.868C19.1336 5.868 19.2176 5.904 19.2816 5.976C19.3536 6.048 19.3896 6.136 19.3896 6.24V11.64C19.3896 11.744 19.3536 11.832 19.2816 11.904C19.2176 11.968 19.1336 12 19.0296 12C18.9256 12 18.8376 11.968 18.7656 11.904C18.7016 11.832 18.6696 11.744 18.6696 11.64V10.836C18.4696 11.196 18.1696 11.5 17.7696 11.748C17.3696 11.996 16.9336 12.12 16.4616 12.12C15.9256 12.12 15.4416 11.98 15.0096 11.7C14.5856 11.42 14.2496 11.036 14.0016 10.548C13.7616 10.06 13.6416 9.512 13.6416 8.904C13.6416 8.296 13.7656 7.752 14.0136 7.272C14.2616 6.784 14.5976 6.404 15.0216 6.132C15.4536 5.86 15.9296 5.724 16.4496 5.724C16.9296 5.724 17.3696 5.84 17.7696 6.072C18.1696 6.304 18.4696 6.608 18.6696 6.984V6.24C18.6696 6.136 18.7016 6.048 18.7656 5.976C18.8376 5.904 18.9256 5.868 19.0296 5.868ZM16.5336 11.448C16.9496 11.448 17.3216 11.34 17.6496 11.124C17.9856 10.9 18.2456 10.596 18.4296 10.212C18.6216 9.82 18.7176 9.384 18.7176 8.904C18.7176 8.44 18.6216 8.016 18.4296 7.632C18.2456 7.248 17.9856 6.948 17.6496 6.732C17.3216 6.508 16.9496 6.396 16.5336 6.396C16.1176 6.396 15.7416 6.504 15.4056 6.72C15.0776 6.936 14.8176 7.236 14.6256 7.62C14.4416 7.996 14.3496 8.424 14.3496 8.904C14.3496 9.384 14.4416 9.82 14.6256 10.212C14.8096 10.596 15.0656 10.9 15.3936 11.124C15.7296 11.34 16.1096 11.448 16.5336 11.448ZM23.4043 3.804C23.1483 3.804 22.9483 3.888 22.8043 4.056C22.6683 4.224 22.6003 4.456 22.6003 4.752V5.988H23.9443C24.0323 5.988 24.1083 6.02 24.1723 6.084C24.2443 6.148 24.2803 6.228 24.2803 6.324C24.2803 6.42 24.2443 6.5 24.1723 6.564C24.1083 6.628 24.0323 6.66 23.9443 6.66H22.6003V11.64C22.6003 11.744 22.5643 11.832 22.4923 11.904C22.4283 11.968 22.3443 12 22.2403 12C22.1363 12 22.0483 11.968 21.9763 11.904C21.9123 11.832 21.8803 11.744 21.8803 11.64V6.66H21.0043C20.9083 6.66 20.8283 6.628 20.7643 6.564C20.7003 6.492 20.6683 6.412 20.6683 6.324C20.6683 6.22 20.7003 6.14 20.7643 6.084C20.8283 6.02 20.9083 5.988 21.0043 5.988H21.8803V4.752C21.8803 4.248 22.0243 3.86 22.3123 3.588C22.6083 3.308 23.0003 3.168 23.4883 3.168C23.7123 3.168 23.9203 3.204 24.1123 3.276C24.3043 3.34 24.4003 3.448 24.4003 3.6C24.4003 3.696 24.3683 3.776 24.3043 3.84C24.2403 3.904 24.1683 3.936 24.0883 3.936C24.0163 3.936 23.9283 3.916 23.8243 3.876C23.6483 3.828 23.5083 3.804 23.4043 3.804ZM26.7339 6.564V10.584C26.7339 10.888 26.7899 11.096 26.9019 11.208C27.0139 11.312 27.1619 11.364 27.3459 11.364C27.3939 11.364 27.4539 11.356 27.5259 11.34C27.5979 11.316 27.6539 11.304 27.6939 11.304C27.7659 11.304 27.8259 11.336 27.8739 11.4C27.9299 11.456 27.9579 11.524 27.9579 11.604C27.9579 11.716 27.8939 11.812 27.7659 11.892C27.6379 11.964 27.4859 12 27.3099 12C27.0939 12 26.9019 11.98 26.7339 11.94C26.5659 11.9 26.4019 11.78 26.2419 11.58C26.0899 11.38 26.0139 11.06 26.0139 10.62V6.564H25.1379C25.0419 6.564 24.9579 6.532 24.8859 6.468C24.8219 6.404 24.7899 6.324 24.7899 6.228C24.7899 6.132 24.8219 6.052 24.8859 5.988C24.9579 5.924 25.0419 5.892 25.1379 5.892H26.0139V4.56C26.0139 4.456 26.0459 4.372 26.1099 4.308C26.1819 4.236 26.2699 4.2 26.3739 4.2C26.4779 4.2 26.5619 4.236 26.6259 4.308C26.6979 4.372 26.7339 4.456 26.7339 4.56V5.892H27.9339C28.0219 5.892 28.0979 5.928 28.1619 6C28.2339 6.072 28.2699 6.152 28.2699 6.24C28.2699 6.336 28.2379 6.416 28.1739 6.48C28.1099 6.536 28.0299 6.564 27.9339 6.564H26.7339ZM34.7258 8.58C34.7258 8.676 34.6898 8.76 34.6178 8.832C34.5458 8.896 34.4618 8.928 34.3658 8.928H29.8298C29.8298 9.408 29.9258 9.84 30.1178 10.224C30.3178 10.6 30.5978 10.9 30.9578 11.124C31.3258 11.34 31.7578 11.448 32.2538 11.448C32.6378 11.448 32.9818 11.368 33.2858 11.208C33.5898 11.048 33.8338 10.844 34.0178 10.596C34.1058 10.524 34.1898 10.488 34.2698 10.488C34.3498 10.488 34.4218 10.52 34.4858 10.584C34.5498 10.648 34.5818 10.72 34.5818 10.8C34.5818 10.888 34.5418 10.972 34.4618 11.052C34.2058 11.364 33.8818 11.62 33.4898 11.82C33.1058 12.02 32.6978 12.12 32.2658 12.12C31.6498 12.12 31.1058 11.988 30.6338 11.724C30.1618 11.46 29.7938 11.092 29.5298 10.62C29.2658 10.14 29.1338 9.588 29.1338 8.964C29.1338 8.308 29.2618 7.736 29.5178 7.248C29.7818 6.752 30.1298 6.376 30.5618 6.12C30.9938 5.856 31.4538 5.724 31.9418 5.724C32.4218 5.724 32.8698 5.836 33.2858 6.06C33.7098 6.284 34.0538 6.612 34.3178 7.044C34.5818 7.476 34.7178 7.988 34.7258 8.58ZM31.9418 6.42C31.4778 6.42 31.0458 6.58 30.6458 6.9C30.2538 7.22 30.0018 7.68 29.8898 8.28H33.9818V8.184C33.9418 7.824 33.8218 7.512 33.6218 7.248C33.4218 6.976 33.1698 6.772 32.8658 6.636C32.5698 6.492 32.2618 6.42 31.9418 6.42ZM41.1897 3.12C41.2937 3.12 41.3777 3.156 41.4417 3.228C41.5137 3.292 41.5497 3.376 41.5497 3.48V11.64C41.5497 11.744 41.5137 11.832 41.4417 11.904C41.3777 11.968 41.2937 12 41.1897 12C41.0857 12 40.9977 11.968 40.9257 11.904C40.8617 11.832 40.8297 11.744 40.8297 11.64V10.8C40.6297 11.168 40.3297 11.48 39.9297 11.736C39.5377 11.992 39.1017 12.12 38.6217 12.12C38.0937 12.12 37.6137 11.984 37.1817 11.712C36.7577 11.432 36.4217 11.048 36.1737 10.56C35.9257 10.072 35.8017 9.524 35.8017 8.916C35.8017 8.316 35.9257 7.772 36.1737 7.284C36.4217 6.796 36.7577 6.416 37.1817 6.144C37.6137 5.864 38.0897 5.724 38.6097 5.724C39.0817 5.724 39.5177 5.844 39.9177 6.084C40.3177 6.316 40.6217 6.62 40.8297 6.996V3.48C40.8297 3.376 40.8617 3.292 40.9257 3.228C40.9977 3.156 41.0857 3.12 41.1897 3.12ZM38.6937 11.448C39.1097 11.448 39.4817 11.34 39.8097 11.124C40.1457 10.908 40.4057 10.608 40.5897 10.224C40.7817 9.832 40.8777 9.396 40.8777 8.916C40.8777 8.444 40.7817 8.016 40.5897 7.632C40.4057 7.248 40.1457 6.948 39.8097 6.732C39.4817 6.508 39.1097 6.396 38.6937 6.396C38.2777 6.396 37.9017 6.508 37.5657 6.732C37.2377 6.948 36.9777 7.248 36.7857 7.632C36.6017 8.016 36.5097 8.444 36.5097 8.916C36.5097 9.396 36.6017 9.828 36.7857 10.212C36.9777 10.596 37.2377 10.9 37.5657 11.124C37.9017 11.34 38.2777 11.448 38.6937 11.448Z" fill="black"/>
<circle cx="10" cy="38" r="9.25" fill="white" stroke="#007777" stroke-width="1.5"/>
<path d="M10.57 33.6C10.658 33.608 10.73 33.648 10.786 33.72C10.85 33.784 10.882 33.864 10.882 33.96V41.64C10.882 41.744 10.842 41.832 10.762 41.904C10.69 41.968 10.598 42 10.486 42C10.382 42 10.294 41.968 10.222 41.904C10.15 41.832 10.114 41.744 10.114 41.64V34.62L8.61395 35.508C8.55795 35.54 8.50195 35.556 8.44595 35.556C8.34195 35.556 8.24995 35.516 8.16995 35.436C8.09795 35.356 8.06195 35.268 8.06195 35.172C8.06195 35.116 8.07795 35.06 8.10995 35.004C8.14995 34.948 8.19795 34.904 8.25395 34.872L10.282 33.648C10.362 33.6 10.458 33.584 10.57 33.6Z" fill="black"/>
<path d="M101.616 7.536C102.096 7.656 102.488 7.896 102.792 8.256C103.096 8.616 103.248 9.084 103.248 9.66C103.248 10.444 103.004 11.032 102.516 11.424C102.036 11.808 101.436 12 100.716 12H97.488C97.384 12 97.296 11.968 97.224 11.904C97.16 11.832 97.128 11.744 97.128 11.64V3.96C97.128 3.856 97.16 3.772 97.224 3.708C97.296 3.636 97.384 3.6 97.488 3.6H100.668C101.34 3.6 101.864 3.784 102.24 4.152C102.624 4.52 102.816 5.024 102.816 5.664C102.816 6.088 102.712 6.468 102.504 6.804C102.296 7.14 102 7.384 101.616 7.536ZM102.048 5.724C102.048 5.284 101.916 4.94 101.652 4.692C101.396 4.436 101.036 4.308 100.572 4.308H97.896V7.308H100.572C101.004 7.3 101.356 7.16 101.628 6.888C101.908 6.616 102.048 6.228 102.048 5.724ZM100.68 11.292C101.216 11.292 101.648 11.156 101.976 10.884C102.312 10.612 102.48 10.204 102.48 9.66C102.48 9.1 102.308 8.688 101.964 8.424C101.628 8.16 101.192 8.028 100.656 8.028H97.896V11.292H100.68ZM109.744 5.868C109.848 5.868 109.932 5.904 109.996 5.976C110.068 6.048 110.104 6.136 110.104 6.24V11.64C110.104 11.744 110.068 11.832 109.996 11.904C109.932 11.968 109.848 12 109.744 12C109.64 12 109.552 11.968 109.48 11.904C109.416 11.832 109.384 11.744 109.384 11.64V10.836C109.184 11.196 108.884 11.5 108.484 11.748C108.084 11.996 107.648 12.12 107.176 12.12C106.64 12.12 106.156 11.98 105.724 11.7C105.3 11.42 104.964 11.036 104.716 10.548C104.476 10.06 104.356 9.512 104.356 8.904C104.356 8.296 104.48 7.752 104.728 7.272C104.976 6.784 105.312 6.404 105.736 6.132C106.168 5.86 106.644 5.724 107.164 5.724C107.644 5.724 108.084 5.84 108.484 6.072C108.884 6.304 109.184 6.608 109.384 6.984V6.24C109.384 6.136 109.416 6.048 109.48 5.976C109.552 5.904 109.64 5.868 109.744 5.868ZM107.248 11.448C107.664 11.448 108.036 11.34 108.364 11.124C108.7 10.9 108.96 10.596 109.144 10.212C109.336 9.82 109.432 9.384 109.432 8.904C109.432 8.44 109.336 8.016 109.144 7.632C108.96 7.248 108.7 6.948 108.364 6.732C108.036 6.508 107.664 6.396 107.248 6.396C106.832 6.396 106.456 6.504 106.12 6.72C105.792 6.936 105.532 7.236 105.34 7.62C105.156 7.996 105.064 8.424 105.064 8.904C105.064 9.384 105.156 9.82 105.34 10.212C105.524 10.596 105.78 10.9 106.108 11.124C106.444 11.34 106.824 11.448 107.248 11.448ZM117.167 5.868C117.271 5.868 117.355 5.904 117.419 5.976C117.491 6.04 117.527 6.128 117.527 6.24V11.436C117.527 12.06 117.395 12.592 117.131 13.032C116.875 13.48 116.519 13.82 116.063 14.052C115.615 14.284 115.099 14.4 114.515 14.4C114.235 14.4 113.939 14.364 113.627 14.292C113.323 14.22 113.059 14.128 112.835 14.016C112.619 13.904 112.495 13.788 112.463 13.668C112.407 13.612 112.379 13.548 112.379 13.476C112.379 13.396 112.415 13.332 112.487 13.284C112.519 13.26 112.559 13.248 112.607 13.248C112.655 13.248 112.747 13.276 112.883 13.332L113.135 13.44C113.631 13.632 114.095 13.728 114.527 13.728C115.239 13.728 115.795 13.524 116.195 13.116C116.603 12.716 116.807 12.172 116.807 11.484V10.74C116.607 11.172 116.291 11.512 115.859 11.76C115.427 12 114.975 12.12 114.503 12.12C113.951 12.12 113.451 11.984 113.003 11.712C112.563 11.432 112.215 11.048 111.959 10.56C111.703 10.072 111.575 9.524 111.575 8.916C111.575 8.316 111.703 7.772 111.959 7.284C112.215 6.796 112.563 6.416 113.003 6.144C113.451 5.864 113.947 5.724 114.491 5.724C114.995 5.724 115.455 5.852 115.871 6.108C116.295 6.356 116.607 6.656 116.807 7.008V6.24C116.807 6.136 116.839 6.048 116.903 5.976C116.975 5.904 117.063 5.868 117.167 5.868ZM114.563 11.448C115.003 11.448 115.395 11.344 115.739 11.136C116.091 10.92 116.363 10.62 116.555 10.236C116.755 9.844 116.855 9.404 116.855 8.916C116.855 8.428 116.755 7.992 116.555 7.608C116.363 7.224 116.091 6.928 115.739 6.72C115.395 6.504 115.003 6.396 114.563 6.396C114.131 6.396 113.739 6.508 113.387 6.732C113.043 6.948 112.771 7.248 112.571 7.632C112.379 8.016 112.283 8.444 112.283 8.916C112.283 9.396 112.379 9.828 112.571 10.212C112.771 10.596 113.043 10.9 113.387 11.124C113.739 11.34 114.131 11.448 114.563 11.448ZM125.154 12.12C124.578 12.12 124.066 12.024 123.618 11.832C123.178 11.64 122.75 11.34 122.334 10.932C122.238 10.852 122.19 10.756 122.19 10.644C122.19 10.548 122.226 10.46 122.298 10.38C122.378 10.3 122.466 10.26 122.562 10.26C122.658 10.26 122.746 10.3 122.826 10.38C123.45 11.068 124.23 11.412 125.166 11.412C125.742 11.412 126.218 11.276 126.594 11.004C126.978 10.732 127.17 10.376 127.17 9.936C127.17 9.592 127.074 9.308 126.882 9.084C126.698 8.852 126.454 8.664 126.15 8.52C125.846 8.376 125.458 8.228 124.986 8.076C124.474 7.924 124.042 7.756 123.69 7.572C123.346 7.388 123.066 7.144 122.85 6.84C122.634 6.528 122.526 6.136 122.526 5.664C122.526 5.24 122.638 4.864 122.862 4.536C123.094 4.208 123.414 3.952 123.822 3.768C124.238 3.576 124.714 3.48 125.25 3.48C125.738 3.48 126.194 3.564 126.618 3.732C127.05 3.892 127.394 4.124 127.65 4.428C127.77 4.564 127.83 4.68 127.83 4.776C127.83 4.864 127.79 4.948 127.71 5.028C127.63 5.1 127.542 5.136 127.446 5.136C127.366 5.136 127.298 5.108 127.242 5.052C127.026 4.796 126.738 4.588 126.378 4.428C126.018 4.268 125.642 4.188 125.25 4.188C124.666 4.188 124.19 4.32 123.822 4.584C123.454 4.84 123.27 5.192 123.27 5.64C123.27 6.104 123.446 6.46 123.798 6.708C124.15 6.956 124.654 7.184 125.31 7.392C125.878 7.56 126.342 7.732 126.702 7.908C127.062 8.084 127.354 8.336 127.578 8.664C127.81 8.984 127.926 9.408 127.926 9.936C127.926 10.344 127.806 10.716 127.566 11.052C127.334 11.38 127.006 11.64 126.582 11.832C126.166 12.024 125.69 12.12 125.154 12.12ZM134.628 8.58C134.628 8.676 134.592 8.76 134.52 8.832C134.448 8.896 134.364 8.928 134.268 8.928H129.732C129.732 9.408 129.828 9.84 130.02 10.224C130.22 10.6 130.5 10.9 130.86 11.124C131.228 11.34 131.66 11.448 132.156 11.448C132.54 11.448 132.884 11.368 133.188 11.208C133.492 11.048 133.736 10.844 133.92 10.596C134.008 10.524 134.092 10.488 134.172 10.488C134.252 10.488 134.324 10.52 134.388 10.584C134.452 10.648 134.484 10.72 134.484 10.8C134.484 10.888 134.444 10.972 134.364 11.052C134.108 11.364 133.784 11.62 133.392 11.82C133.008 12.02 132.6 12.12 132.168 12.12C131.552 12.12 131.008 11.988 130.536 11.724C130.064 11.46 129.696 11.092 129.432 10.62C129.168 10.14 129.036 9.588 129.036 8.964C129.036 8.308 129.164 7.736 129.42 7.248C129.684 6.752 130.032 6.376 130.464 6.12C130.896 5.856 131.356 5.724 131.844 5.724C132.324 5.724 132.772 5.836 133.188 6.06C133.612 6.284 133.956 6.612 134.22 7.044C134.484 7.476 134.62 7.988 134.628 8.58ZM131.844 6.42C131.38 6.42 130.948 6.58 130.548 6.9C130.156 7.22 129.904 7.68 129.792 8.28H133.884V8.184C133.844 7.824 133.724 7.512 133.524 7.248C133.324 6.976 133.072 6.772 132.768 6.636C132.472 6.492 132.164 6.42 131.844 6.42ZM139.004 5.724C139.748 5.724 140.292 5.944 140.636 6.384C140.988 6.816 141.164 7.392 141.164 8.112V11.64C141.164 11.744 141.128 11.832 141.056 11.904C140.984 11.968 140.9 12 140.804 12C140.7 12 140.612 11.968 140.54 11.904C140.476 11.832 140.444 11.744 140.444 11.64V8.148C140.444 7.628 140.312 7.208 140.048 6.888C139.792 6.56 139.392 6.396 138.848 6.396C138.504 6.396 138.176 6.476 137.864 6.636C137.56 6.796 137.312 7.012 137.12 7.284C136.928 7.548 136.832 7.836 136.832 8.148V11.64C136.832 11.744 136.796 11.832 136.724 11.904C136.66 11.968 136.576 12 136.472 12C136.368 12 136.28 11.968 136.208 11.904C136.144 11.832 136.112 11.744 136.112 11.64V6.264C136.112 6.16 136.144 6.076 136.208 6.012C136.28 5.94 136.368 5.904 136.472 5.904C136.576 5.904 136.66 5.94 136.724 6.012C136.796 6.076 136.832 6.16 136.832 6.264V6.924C137.048 6.58 137.356 6.296 137.756 6.072C138.164 5.84 138.58 5.724 139.004 5.724ZM144.25 6.564V10.584C144.25 10.888 144.306 11.096 144.418 11.208C144.53 11.312 144.678 11.364 144.862 11.364C144.91 11.364 144.97 11.356 145.042 11.34C145.114 11.316 145.17 11.304 145.21 11.304C145.282 11.304 145.342 11.336 145.39 11.4C145.446 11.456 145.474 11.524 145.474 11.604C145.474 11.716 145.41 11.812 145.282 11.892C145.154 11.964 145.002 12 144.826 12C144.61 12 144.418 11.98 144.25 11.94C144.082 11.9 143.918 11.78 143.758 11.58C143.606 11.38 143.53 11.06 143.53 10.62V6.564H142.654C142.558 6.564 142.474 6.532 142.402 6.468C142.338 6.404 142.306 6.324 142.306 6.228C142.306 6.132 142.338 6.052 142.402 5.988C142.474 5.924 142.558 5.892 142.654 5.892H143.53V4.56C143.53 4.456 143.562 4.372 143.626 4.308C143.698 4.236 143.786 4.2 143.89 4.2C143.994 4.2 144.078 4.236 144.142 4.308C144.214 4.372 144.25 4.456 144.25 4.56V5.892H145.45C145.538 5.892 145.614 5.928 145.678 6C145.75 6.072 145.786 6.152 145.786 6.24C145.786 6.336 145.754 6.416 145.69 6.48C145.626 6.536 145.546 6.564 145.45 6.564H144.25ZM151.597 6.564V10.584C151.597 10.888 151.653 11.096 151.765 11.208C151.877 11.312 152.025 11.364 152.209 11.364C152.257 11.364 152.317 11.356 152.389 11.34C152.461 11.316 152.517 11.304 152.557 11.304C152.629 11.304 152.689 11.336 152.737 11.4C152.793 11.456 152.821 11.524 152.821 11.604C152.821 11.716 152.757 11.812 152.629 11.892C152.501 11.964 152.349 12 152.173 12C151.957 12 151.765 11.98 151.597 11.94C151.429 11.9 151.265 11.78 151.105 11.58C150.953 11.38 150.877 11.06 150.877 10.62V6.564H150.001C149.905 6.564 149.821 6.532 149.749 6.468C149.685 6.404 149.653 6.324 149.653 6.228C149.653 6.132 149.685 6.052 149.749 5.988C149.821 5.924 149.905 5.892 150.001 5.892H150.877V4.56C150.877 4.456 150.909 4.372 150.973 4.308C151.045 4.236 151.133 4.2 151.237 4.2C151.341 4.2 151.425 4.236 151.489 4.308C151.561 4.372 151.597 4.456 151.597 4.56V5.892H152.797C152.885 5.892 152.961 5.928 153.025 6C153.097 6.072 153.133 6.152 153.133 6.24C153.133 6.336 153.101 6.416 153.037 6.48C152.973 6.536 152.893 6.564 152.797 6.564H151.597ZM160.069 8.928C160.069 9.528 159.937 10.072 159.673 10.56C159.409 11.048 159.045 11.432 158.581 11.712C158.117 11.984 157.601 12.12 157.033 12.12C156.465 12.12 155.949 11.984 155.485 11.712C155.021 11.432 154.657 11.048 154.393 10.56C154.129 10.072 153.997 9.528 153.997 8.928C153.997 8.328 154.129 7.784 154.393 7.296C154.657 6.808 155.021 6.424 155.485 6.144C155.949 5.864 156.465 5.724 157.033 5.724C157.601 5.724 158.117 5.864 158.581 6.144C159.045 6.424 159.409 6.808 159.673 7.296C159.937 7.784 160.069 8.328 160.069 8.928ZM159.349 8.928C159.349 8.448 159.249 8.016 159.049 7.632C158.849 7.248 158.569 6.948 158.209 6.732C157.857 6.508 157.465 6.396 157.033 6.396C156.601 6.396 156.209 6.508 155.857 6.732C155.505 6.948 155.225 7.248 155.017 7.632C154.817 8.016 154.717 8.448 154.717 8.928C154.717 9.4 154.817 9.828 155.017 10.212C155.225 10.596 155.505 10.9 155.857 11.124C156.209 11.34 156.601 11.448 157.033 11.448C157.465 11.448 157.857 11.34 158.209 11.124C158.569 10.908 158.849 10.608 159.049 10.224C159.249 9.84 159.349 9.408 159.349 8.928ZM170.367 3.912C170.367 3.968 170.343 4.044 170.295 4.14L167.619 7.824V11.64C167.619 11.744 167.583 11.832 167.511 11.904C167.439 11.968 167.351 12 167.247 12C167.143 12 167.055 11.968 166.983 11.904C166.919 11.832 166.887 11.744 166.887 11.64V7.836L164.199 4.164C164.135 4.092 164.103 4.008 164.103 3.912C164.103 3.816 164.143 3.732 164.223 3.66C164.303 3.588 164.391 3.552 164.487 3.552C164.615 3.552 164.715 3.608 164.787 3.72L167.271 7.104L169.695 3.72C169.783 3.608 169.887 3.552 170.007 3.552C170.103 3.552 170.187 3.592 170.259 3.672C170.331 3.744 170.367 3.824 170.367 3.912ZM176.698 8.928C176.698 9.528 176.566 10.072 176.302 10.56C176.038 11.048 175.674 11.432 175.21 11.712C174.746 11.984 174.23 12.12 173.662 12.12C173.094 12.12 172.578 11.984 172.114 11.712C171.65 11.432 171.286 11.048 171.022 10.56C170.758 10.072 170.626 9.528 170.626 8.928C170.626 8.328 170.758 7.784 171.022 7.296C171.286 6.808 171.65 6.424 172.114 6.144C172.578 5.864 173.094 5.724 173.662 5.724C174.23 5.724 174.746 5.864 175.21 6.144C175.674 6.424 176.038 6.808 176.302 7.296C176.566 7.784 176.698 8.328 176.698 8.928ZM175.978 8.928C175.978 8.448 175.878 8.016 175.678 7.632C175.478 7.248 175.198 6.948 174.838 6.732C174.486 6.508 174.094 6.396 173.662 6.396C173.23 6.396 172.838 6.508 172.486 6.732C172.134 6.948 171.854 7.248 171.646 7.632C171.446 8.016 171.346 8.448 171.346 8.928C171.346 9.4 171.446 9.828 171.646 10.212C171.854 10.596 172.134 10.9 172.486 11.124C172.838 11.34 173.23 11.448 173.662 11.448C174.094 11.448 174.486 11.34 174.838 11.124C175.198 10.908 175.478 10.608 175.678 10.224C175.878 9.84 175.978 9.408 175.978 8.928ZM182.755 5.904C182.859 5.904 182.943 5.94 183.007 6.012C183.079 6.076 183.115 6.16 183.115 6.264V9.648C183.115 10.432 182.895 11.036 182.455 11.46C182.015 11.876 181.407 12.084 180.631 12.084C179.863 12.084 179.259 11.876 178.819 11.46C178.387 11.036 178.171 10.432 178.171 9.648V6.264C178.171 6.16 178.203 6.076 178.267 6.012C178.339 5.94 178.427 5.904 178.531 5.904C178.635 5.904 178.719 5.94 178.783 6.012C178.855 6.076 178.891 6.16 178.891 6.264V9.648C178.891 10.224 179.043 10.664 179.347 10.968C179.651 11.264 180.079 11.412 180.631 11.412C181.191 11.412 181.623 11.264 181.927 10.968C182.239 10.664 182.395 10.224 182.395 9.648V6.264C182.395 6.16 182.427 6.076 182.491 6.012C182.563 5.94 182.651 5.904 182.755 5.904Z" fill="black"/>
<circle cx="142" cy="38" r="9.25" fill="white" stroke="#007777" stroke-width="1.5"/>
<path d="M144.012 41.304C144.108 41.304 144.188 41.34 144.252 41.412C144.324 41.476 144.36 41.556 144.36 41.652C144.36 41.756 144.324 41.84 144.252 41.904C144.188 41.968 144.108 42 144.012 42H139.512C139.4 42 139.308 41.968 139.236 41.904C139.164 41.84 139.128 41.752 139.128 41.64C139.128 41.552 139.16 41.468 139.224 41.388L141.996 38.328C142.444 37.848 142.776 37.42 142.992 37.044C143.208 36.66 143.316 36.284 143.316 35.916C143.316 35.372 143.152 34.944 142.824 34.632C142.496 34.32 142.04 34.164 141.456 34.164C141.064 34.164 140.712 34.26 140.4 34.452C140.096 34.636 139.868 34.92 139.716 35.304C139.628 35.448 139.524 35.52 139.404 35.52C139.316 35.52 139.232 35.488 139.152 35.424C139.072 35.36 139.032 35.288 139.032 35.208C139.032 35.16 139.048 35.104 139.08 35.04C139.112 34.976 139.152 34.912 139.2 34.848C139.408 34.416 139.72 34.08 140.136 33.84C140.552 33.6 141.008 33.48 141.504 33.48C142.312 33.48 142.944 33.7 143.4 34.14C143.856 34.58 144.084 35.156 144.084 35.868C144.084 36.308 143.964 36.76 143.724 37.224C143.484 37.68 143.088 38.212 142.536 38.82L140.328 41.304H144.012Z" fill="black"/>
<path d="M223.616 7.536C224.096 7.656 224.488 7.896 224.792 8.256C225.096 8.616 225.248 9.084 225.248 9.66C225.248 10.444 225.004 11.032 224.516 11.424C224.036 11.808 223.436 12 222.716 12H219.488C219.384 12 219.296 11.968 219.224 11.904C219.16 11.832 219.128 11.744 219.128 11.64V3.96C219.128 3.856 219.16 3.772 219.224 3.708C219.296 3.636 219.384 3.6 219.488 3.6H222.668C223.34 3.6 223.864 3.784 224.24 4.152C224.624 4.52 224.816 5.024 224.816 5.664C224.816 6.088 224.712 6.468 224.504 6.804C224.296 7.14 224 7.384 223.616 7.536ZM224.048 5.724C224.048 5.284 223.916 4.94 223.652 4.692C223.396 4.436 223.036 4.308 222.572 4.308H219.896V7.308H222.572C223.004 7.3 223.356 7.16 223.628 6.888C223.908 6.616 224.048 6.228 224.048 5.724ZM222.68 11.292C223.216 11.292 223.648 11.156 223.976 10.884C224.312 10.612 224.48 10.204 224.48 9.66C224.48 9.1 224.308 8.688 223.964 8.424C223.628 8.16 223.192 8.028 222.656 8.028H219.896V11.292H222.68ZM231.744 5.868C231.848 5.868 231.932 5.904 231.996 5.976C232.068 6.048 232.104 6.136 232.104 6.24V11.64C232.104 11.744 232.068 11.832 231.996 11.904C231.932 11.968 231.848 12 231.744 12C231.64 12 231.552 11.968 231.48 11.904C231.416 11.832 231.384 11.744 231.384 11.64V10.836C231.184 11.196 230.884 11.5 230.484 11.748C230.084 11.996 229.648 12.12 229.176 12.12C228.64 12.12 228.156 11.98 227.724 11.7C227.3 11.42 226.964 11.036 226.716 10.548C226.476 10.06 226.356 9.512 226.356 8.904C226.356 8.296 226.48 7.752 226.728 7.272C226.976 6.784 227.312 6.404 227.736 6.132C228.168 5.86 228.644 5.724 229.164 5.724C229.644 5.724 230.084 5.84 230.484 6.072C230.884 6.304 231.184 6.608 231.384 6.984V6.24C231.384 6.136 231.416 6.048 231.48 5.976C231.552 5.904 231.64 5.868 231.744 5.868ZM229.248 11.448C229.664 11.448 230.036 11.34 230.364 11.124C230.7 10.9 230.96 10.596 231.144 10.212C231.336 9.82 231.432 9.384 231.432 8.904C231.432 8.44 231.336 8.016 231.144 7.632C230.96 7.248 230.7 6.948 230.364 6.732C230.036 6.508 229.664 6.396 229.248 6.396C228.832 6.396 228.456 6.504 228.12 6.72C227.792 6.936 227.532 7.236 227.34 7.62C227.156 7.996 227.064 8.424 227.064 8.904C227.064 9.384 227.156 9.82 227.34 10.212C227.524 10.596 227.78 10.9 228.108 11.124C228.444 11.34 228.824 11.448 229.248 11.448ZM239.167 5.868C239.271 5.868 239.355 5.904 239.419 5.976C239.491 6.04 239.527 6.128 239.527 6.24V11.436C239.527 12.06 239.395 12.592 239.131 13.032C238.875 13.48 238.519 13.82 238.063 14.052C237.615 14.284 237.099 14.4 236.515 14.4C236.235 14.4 235.939 14.364 235.627 14.292C235.323 14.22 235.059 14.128 234.835 14.016C234.619 13.904 234.495 13.788 234.463 13.668C234.407 13.612 234.379 13.548 234.379 13.476C234.379 13.396 234.415 13.332 234.487 13.284C234.519 13.26 234.559 13.248 234.607 13.248C234.655 13.248 234.747 13.276 234.883 13.332L235.135 13.44C235.631 13.632 236.095 13.728 236.527 13.728C237.239 13.728 237.795 13.524 238.195 13.116C238.603 12.716 238.807 12.172 238.807 11.484V10.74C238.607 11.172 238.291 11.512 237.859 11.76C237.427 12 236.975 12.12 236.503 12.12C235.951 12.12 235.451 11.984 235.003 11.712C234.563 11.432 234.215 11.048 233.959 10.56C233.703 10.072 233.575 9.524 233.575 8.916C233.575 8.316 233.703 7.772 233.959 7.284C234.215 6.796 234.563 6.416 235.003 6.144C235.451 5.864 235.947 5.724 236.491 5.724C236.995 5.724 237.455 5.852 237.871 6.108C238.295 6.356 238.607 6.656 238.807 7.008V6.24C238.807 6.136 238.839 6.048 238.903 5.976C238.975 5.904 239.063 5.868 239.167 5.868ZM236.563 11.448C237.003 11.448 237.395 11.344 237.739 11.136C238.091 10.92 238.363 10.62 238.555 10.236C238.755 9.844 238.855 9.404 238.855 8.916C238.855 8.428 238.755 7.992 238.555 7.608C238.363 7.224 238.091 6.928 237.739 6.72C237.395 6.504 237.003 6.396 236.563 6.396C236.131 6.396 235.739 6.508 235.387 6.732C235.043 6.948 234.771 7.248 234.571 7.632C234.379 8.016 234.283 8.444 234.283 8.916C234.283 9.396 234.379 9.828 234.571 10.212C234.771 10.596 235.043 10.9 235.387 11.124C235.739 11.34 236.131 11.448 236.563 11.448ZM251.018 11.352C251.138 11.432 251.198 11.532 251.198 11.652C251.198 11.692 251.182 11.744 251.15 11.808C251.118 11.864 251.074 11.908 251.018 11.94C250.962 11.972 250.902 11.988 250.838 11.988C250.758 11.988 250.69 11.972 250.634 11.94C250.41 11.812 250.23 11.604 250.094 11.316C249.958 11.028 249.89 10.568 249.89 9.936C249.89 9.376 249.734 8.984 249.422 8.76C249.11 8.528 248.738 8.412 248.306 8.412H245.642V11.64C245.642 11.744 245.61 11.832 245.546 11.904C245.482 11.968 245.398 12 245.294 12C245.182 12 245.086 11.968 245.006 11.904C244.926 11.832 244.886 11.744 244.886 11.64V3.96C244.886 3.856 244.918 3.772 244.982 3.708C245.054 3.636 245.142 3.6 245.246 3.6H248.486C248.942 3.6 249.35 3.7 249.71 3.9C250.07 4.092 250.35 4.36 250.55 4.704C250.758 5.048 250.862 5.436 250.862 5.868C250.862 6.38 250.726 6.832 250.454 7.224C250.19 7.608 249.842 7.872 249.41 8.016C249.762 8.152 250.05 8.384 250.274 8.712C250.498 9.032 250.614 9.424 250.622 9.888C250.63 10.384 250.662 10.732 250.718 10.932C250.782 11.132 250.882 11.272 251.018 11.352ZM248.522 7.752C248.802 7.728 249.062 7.636 249.302 7.476C249.542 7.316 249.734 7.1 249.878 6.828C250.022 6.556 250.094 6.244 250.094 5.892C250.094 5.436 249.938 5.06 249.626 4.764C249.322 4.46 248.922 4.308 248.426 4.308H245.642V7.752H248.522ZM257.87 8.58C257.87 8.676 257.834 8.76 257.762 8.832C257.69 8.896 257.606 8.928 257.51 8.928H252.974C252.974 9.408 253.07 9.84 253.262 10.224C253.462 10.6 253.742 10.9 254.102 11.124C254.47 11.34 254.902 11.448 255.398 11.448C255.782 11.448 256.126 11.368 256.43 11.208C256.734 11.048 256.978 10.844 257.162 10.596C257.25 10.524 257.334 10.488 257.414 10.488C257.494 10.488 257.566 10.52 257.63 10.584C257.694 10.648 257.726 10.72 257.726 10.8C257.726 10.888 257.686 10.972 257.606 11.052C257.35 11.364 257.026 11.62 256.634 11.82C256.25 12.02 255.842 12.12 255.41 12.12C254.794 12.12 254.25 11.988 253.778 11.724C253.306 11.46 252.938 11.092 252.674 10.62C252.41 10.14 252.278 9.588 252.278 8.964C252.278 8.308 252.406 7.736 252.662 7.248C252.926 6.752 253.274 6.376 253.706 6.12C254.138 5.856 254.598 5.724 255.086 5.724C255.566 5.724 256.014 5.836 256.43 6.06C256.854 6.284 257.198 6.612 257.462 7.044C257.726 7.476 257.862 7.988 257.87 8.58ZM255.086 6.42C254.622 6.42 254.19 6.58 253.79 6.9C253.398 7.22 253.146 7.68 253.034 8.28H257.126V8.184C257.086 7.824 256.966 7.512 256.766 7.248C256.566 6.976 256.314 6.772 256.01 6.636C255.714 6.492 255.406 6.42 255.086 6.42ZM262.006 5.724C262.382 5.724 262.73 5.768 263.05 5.856C263.378 5.936 263.638 6.048 263.83 6.192C264.03 6.336 264.13 6.492 264.13 6.66C264.13 6.748 264.098 6.828 264.034 6.9C263.978 6.972 263.906 7.008 263.818 7.008C263.738 7.008 263.67 6.992 263.614 6.96C263.566 6.928 263.51 6.88 263.446 6.816C263.342 6.712 263.242 6.636 263.146 6.588C263.026 6.532 262.866 6.488 262.666 6.456C262.474 6.416 262.266 6.396 262.042 6.396C261.602 6.396 261.198 6.508 260.83 6.732C260.47 6.956 260.186 7.26 259.978 7.644C259.77 8.028 259.666 8.452 259.666 8.916C259.666 9.396 259.766 9.828 259.966 10.212C260.166 10.596 260.442 10.9 260.794 11.124C261.154 11.34 261.562 11.448 262.018 11.448C262.306 11.448 262.534 11.424 262.702 11.376C262.878 11.328 263.05 11.26 263.218 11.172C263.274 11.14 263.37 11.068 263.506 10.956C263.57 10.9 263.626 10.86 263.674 10.836C263.722 10.804 263.774 10.788 263.83 10.788C263.926 10.788 264.002 10.82 264.058 10.884C264.114 10.94 264.142 11.016 264.142 11.112C264.142 11.248 264.046 11.396 263.854 11.556C263.662 11.708 263.398 11.84 263.062 11.952C262.726 12.064 262.354 12.12 261.946 12.12C261.362 12.12 260.842 11.984 260.386 11.712C259.93 11.432 259.574 11.048 259.318 10.56C259.07 10.072 258.946 9.524 258.946 8.916C258.946 8.332 259.074 7.8 259.33 7.32C259.586 6.832 259.946 6.444 260.41 6.156C260.874 5.868 261.406 5.724 262.006 5.724ZM270.702 8.58C270.702 8.676 270.666 8.76 270.594 8.832C270.522 8.896 270.438 8.928 270.342 8.928H265.806C265.806 9.408 265.902 9.84 266.094 10.224C266.294 10.6 266.574 10.9 266.934 11.124C267.302 11.34 267.734 11.448 268.23 11.448C268.614 11.448 268.958 11.368 269.262 11.208C269.566 11.048 269.81 10.844 269.994 10.596C270.082 10.524 270.166 10.488 270.246 10.488C270.326 10.488 270.398 10.52 270.462 10.584C270.526 10.648 270.558 10.72 270.558 10.8C270.558 10.888 270.518 10.972 270.438 11.052C270.182 11.364 269.858 11.62 269.466 11.82C269.082 12.02 268.674 12.12 268.242 12.12C267.626 12.12 267.082 11.988 266.61 11.724C266.138 11.46 265.77 11.092 265.506 10.62C265.242 10.14 265.11 9.588 265.11 8.964C265.11 8.308 265.238 7.736 265.494 7.248C265.758 6.752 266.106 6.376 266.538 6.12C266.97 5.856 267.43 5.724 267.918 5.724C268.398 5.724 268.846 5.836 269.262 6.06C269.686 6.284 270.03 6.612 270.294 7.044C270.558 7.476 270.694 7.988 270.702 8.58ZM267.918 6.42C267.454 6.42 267.022 6.58 266.622 6.9C266.23 7.22 265.978 7.68 265.866 8.28H269.958V8.184C269.918 7.824 269.798 7.512 269.598 7.248C269.398 6.976 269.146 6.772 268.842 6.636C268.546 6.492 268.238 6.42 267.918 6.42ZM272.882 11.64C272.882 11.744 272.846 11.832 272.774 11.904C272.71 11.968 272.626 12 272.522 12C272.418 12 272.33 11.968 272.258 11.904C272.194 11.832 272.162 11.744 272.162 11.64V6.12C272.162 6.016 272.194 5.932 272.258 5.868C272.33 5.796 272.418 5.76 272.522 5.76C272.626 5.76 272.71 5.796 272.774 5.868C272.846 5.932 272.882 6.016 272.882 6.12V11.64ZM272.522 4.956C272.362 4.956 272.238 4.92 272.15 4.848C272.062 4.768 272.018 4.656 272.018 4.512V4.392C272.018 4.248 272.062 4.14 272.15 4.068C272.246 3.988 272.374 3.948 272.534 3.948C272.854 3.948 273.014 4.096 273.014 4.392V4.512C273.014 4.656 272.97 4.768 272.882 4.848C272.802 4.92 272.682 4.956 272.522 4.956ZM279.385 5.748C279.465 5.748 279.541 5.776 279.613 5.832C279.685 5.888 279.721 5.96 279.721 6.048C279.721 6.12 279.705 6.188 279.673 6.252L277.321 11.772C277.289 11.836 277.241 11.892 277.177 11.94C277.121 11.98 277.061 12 276.997 12C276.917 12.008 276.845 11.992 276.781 11.952C276.717 11.912 276.669 11.852 276.637 11.772L274.273 6.252C274.273 6.236 274.265 6.212 274.249 6.18C274.241 6.148 274.237 6.116 274.237 6.084C274.237 5.988 274.269 5.908 274.333 5.844C274.397 5.772 274.489 5.736 274.609 5.736C274.681 5.736 274.745 5.76 274.801 5.808C274.865 5.848 274.913 5.904 274.945 5.976L276.985 10.836L279.037 5.976C279.069 5.904 279.113 5.848 279.169 5.808C279.233 5.76 279.305 5.74 279.385 5.748ZM286.23 8.58C286.23 8.676 286.194 8.76 286.122 8.832C286.05 8.896 285.966 8.928 285.87 8.928H281.334C281.334 9.408 281.43 9.84 281.622 10.224C281.822 10.6 282.102 10.9 282.462 11.124C282.83 11.34 283.262 11.448 283.758 11.448C284.142 11.448 284.486 11.368 284.79 11.208C285.094 11.048 285.338 10.844 285.522 10.596C285.61 10.524 285.694 10.488 285.774 10.488C285.854 10.488 285.926 10.52 285.99 10.584C286.054 10.648 286.086 10.72 286.086 10.8C286.086 10.888 286.046 10.972 285.966 11.052C285.71 11.364 285.386 11.62 284.994 11.82C284.61 12.02 284.202 12.12 283.77 12.12C283.154 12.12 282.61 11.988 282.138 11.724C281.666 11.46 281.298 11.092 281.034 10.62C280.77 10.14 280.638 9.588 280.638 8.964C280.638 8.308 280.766 7.736 281.022 7.248C281.286 6.752 281.634 6.376 282.066 6.12C282.498 5.856 282.958 5.724 283.446 5.724C283.926 5.724 284.374 5.836 284.79 6.06C285.214 6.284 285.558 6.612 285.822 7.044C286.086 7.476 286.222 7.988 286.23 8.58ZM283.446 6.42C282.982 6.42 282.55 6.58 282.15 6.9C281.758 7.22 281.506 7.68 281.394 8.28H285.486V8.184C285.446 7.824 285.326 7.512 285.126 7.248C284.926 6.976 284.674 6.772 284.37 6.636C284.074 6.492 283.766 6.42 283.446 6.42ZM292.694 3.12C292.798 3.12 292.882 3.156 292.946 3.228C293.018 3.292 293.054 3.376 293.054 3.48V11.64C293.054 11.744 293.018 11.832 292.946 11.904C292.882 11.968 292.798 12 292.694 12C292.59 12 292.502 11.968 292.43 11.904C292.366 11.832 292.334 11.744 292.334 11.64V10.8C292.134 11.168 291.834 11.48 291.434 11.736C291.042 11.992 290.606 12.12 290.126 12.12C289.598 12.12 289.118 11.984 288.686 11.712C288.262 11.432 287.926 11.048 287.678 10.56C287.43 10.072 287.306 9.524 287.306 8.916C287.306 8.316 287.43 7.772 287.678 7.284C287.926 6.796 288.262 6.416 288.686 6.144C289.118 5.864 289.594 5.724 290.114 5.724C290.586 5.724 291.022 5.844 291.422 6.084C291.822 6.316 292.126 6.62 292.334 6.996V3.48C292.334 3.376 292.366 3.292 292.43 3.228C292.502 3.156 292.59 3.12 292.694 3.12ZM290.198 11.448C290.614 11.448 290.986 11.34 291.314 11.124C291.65 10.908 291.91 10.608 292.094 10.224C292.286 9.832 292.382 9.396 292.382 8.916C292.382 8.444 292.286 8.016 292.094 7.632C291.91 7.248 291.65 6.948 291.314 6.732C290.986 6.508 290.614 6.396 290.198 6.396C289.782 6.396 289.406 6.508 289.07 6.732C288.742 6.948 288.482 7.248 288.29 7.632C288.106 8.016 288.014 8.444 288.014 8.916C288.014 9.396 288.106 9.828 288.29 10.212C288.482 10.596 288.742 10.9 289.07 11.124C289.406 11.34 289.782 11.448 290.198 11.448ZM301.13 5.724C301.658 5.724 302.138 5.86 302.57 6.132C303.002 6.404 303.338 6.784 303.578 7.272C303.826 7.752 303.95 8.296 303.95 8.904C303.95 9.504 303.826 10.052 303.578 10.548C303.338 11.036 303.002 11.42 302.57 11.7C302.146 11.98 301.67 12.12 301.142 12.12C300.686 12.12 300.262 12.008 299.87 11.784C299.486 11.552 299.174 11.248 298.934 10.872V11.664C298.934 11.768 298.898 11.856 298.826 11.928C298.762 12 298.678 12.036 298.574 12.036C298.47 12.036 298.382 12 298.31 11.928C298.246 11.856 298.214 11.768 298.214 11.664V3.492C298.214 3.388 298.246 3.304 298.31 3.24C298.382 3.168 298.47 3.132 298.574 3.132C298.678 3.132 298.762 3.168 298.826 3.24C298.898 3.304 298.934 3.388 298.934 3.492V7.032C299.15 6.64 299.454 6.324 299.846 6.084C300.238 5.844 300.666 5.724 301.13 5.724ZM301.07 11.448C301.486 11.448 301.858 11.336 302.186 11.112C302.522 10.888 302.782 10.584 302.966 10.2C303.158 9.808 303.254 9.376 303.254 8.904C303.254 8.424 303.158 7.996 302.966 7.62C302.782 7.236 302.522 6.936 302.186 6.72C301.858 6.504 301.486 6.396 301.07 6.396C300.646 6.396 300.266 6.504 299.93 6.72C299.594 6.928 299.334 7.224 299.15 7.608C298.966 7.992 298.874 8.424 298.874 8.904C298.874 9.384 298.966 9.82 299.15 10.212C299.342 10.596 299.602 10.9 299.93 11.124C300.266 11.34 300.646 11.448 301.07 11.448ZM310.004 5.76C310.108 5.76 310.192 5.796 310.256 5.868C310.328 5.932 310.364 6.016 310.364 6.12V11.412C310.364 12.044 310.24 12.584 309.992 13.032C309.744 13.48 309.4 13.82 308.96 14.052C308.52 14.284 308.024 14.4 307.472 14.4C307.136 14.4 306.82 14.364 306.524 14.292C306.236 14.22 305.996 14.124 305.804 14.004C305.636 13.9 305.552 13.784 305.552 13.656C305.552 13.64 305.56 13.6 305.576 13.536C305.6 13.456 305.64 13.396 305.696 13.356C305.752 13.316 305.812 13.296 305.876 13.296C305.924 13.296 305.972 13.308 306.02 13.332C306.532 13.612 307.02 13.752 307.484 13.752C308.148 13.752 308.672 13.544 309.056 13.128C309.448 12.712 309.644 12.144 309.644 11.424V11.004C309.444 11.34 309.156 11.612 308.78 11.82C308.404 12.02 307.996 12.12 307.556 12.12C306.86 12.12 306.332 11.912 305.972 11.496C305.612 11.08 305.432 10.516 305.432 9.804V6.12C305.432 6.016 305.464 5.932 305.528 5.868C305.6 5.796 305.688 5.76 305.792 5.76C305.896 5.76 305.98 5.796 306.044 5.868C306.116 5.932 306.152 6.016 306.152 6.12V9.696C306.152 10.272 306.276 10.708 306.524 11.004C306.78 11.3 307.176 11.448 307.712 11.448C308.04 11.448 308.352 11.368 308.648 11.208C308.952 11.04 309.192 10.824 309.368 10.56C309.552 10.288 309.644 10 309.644 9.696V6.12C309.644 6.016 309.676 5.932 309.74 5.868C309.812 5.796 309.9 5.76 310.004 5.76ZM321.066 3.6C321.17 3.6 321.254 3.632 321.318 3.696C321.39 3.76 321.426 3.844 321.426 3.948C321.426 4.052 321.39 4.136 321.318 4.2C321.254 4.256 321.17 4.284 321.066 4.284H318.582V11.64C318.582 11.744 318.546 11.832 318.474 11.904C318.402 11.968 318.314 12 318.21 12C318.098 12 318.006 11.968 317.934 11.904C317.87 11.832 317.838 11.744 317.838 11.64V4.284H315.354C315.25 4.284 315.162 4.252 315.09 4.188C315.026 4.124 314.994 4.04 314.994 3.936C314.994 3.84 315.026 3.76 315.09 3.696C315.162 3.632 315.25 3.6 315.354 3.6H321.066ZM328.671 3.6C328.775 3.6 328.859 3.632 328.923 3.696C328.995 3.76 329.031 3.844 329.031 3.948C329.031 4.052 328.995 4.136 328.923 4.2C328.859 4.256 328.775 4.284 328.671 4.284H326.187V11.64C326.187 11.744 326.151 11.832 326.079 11.904C326.007 11.968 325.919 12 325.815 12C325.703 12 325.611 11.968 325.539 11.904C325.475 11.832 325.443 11.744 325.443 11.64V4.284H322.959C322.855 4.284 322.767 4.252 322.695 4.188C322.631 4.124 322.599 4.04 322.599 3.936C322.599 3.84 322.631 3.76 322.695 3.696C322.767 3.632 322.855 3.6 322.959 3.6H328.671Z" fill="black"/>
<circle cx="274" cy="38" r="9.25" fill="white" stroke="#007777" stroke-width="1.5"/>
<path d="M274.048 36.684C274.496 36.684 274.912 36.788 275.296 36.996C275.688 37.204 276 37.508 276.232 37.908C276.472 38.308 276.592 38.78 276.592 39.324C276.592 39.868 276.46 40.352 276.196 40.776C275.94 41.2 275.588 41.532 275.14 41.772C274.692 42.004 274.196 42.12 273.652 42.12C273.308 42.12 272.976 42.064 272.656 41.952C272.336 41.84 272.064 41.672 271.84 41.448C271.728 41.368 271.672 41.272 271.672 41.16C271.672 41.064 271.708 40.976 271.78 40.896C271.852 40.808 271.936 40.764 272.032 40.764C272.128 40.764 272.228 40.808 272.332 40.896C272.668 41.256 273.132 41.436 273.724 41.436C274.108 41.436 274.464 41.348 274.792 41.172C275.12 40.996 275.38 40.748 275.572 40.428C275.764 40.108 275.86 39.748 275.86 39.348C275.86 38.908 275.76 38.54 275.56 38.244C275.368 37.948 275.112 37.732 274.792 37.596C274.48 37.452 274.148 37.38 273.796 37.38C273.7 37.38 273.576 37.396 273.424 37.428C273.272 37.452 273.176 37.464 273.136 37.464C273.04 37.464 272.96 37.432 272.896 37.368C272.84 37.296 272.812 37.208 272.812 37.104C272.812 37 272.852 36.908 272.932 36.828L275.224 34.284H271.888C271.792 34.284 271.708 34.252 271.636 34.188C271.572 34.124 271.54 34.04 271.54 33.936C271.54 33.84 271.572 33.76 271.636 33.696C271.708 33.632 271.792 33.6 271.888 33.6H275.92C276.048 33.6 276.14 33.64 276.196 33.72C276.26 33.792 276.292 33.876 276.292 33.972C276.292 34.068 276.252 34.156 276.172 34.236L273.976 36.684H274.048Z" fill="black"/>
<path d="M372.884 11.628C372.876 11.732 372.836 11.82 372.764 11.892C372.692 11.964 372.604 12 372.5 12C372.388 12 372.296 11.968 372.224 11.904C372.16 11.832 372.128 11.74 372.128 11.628V3.972C372.128 3.86 372.164 3.772 372.236 3.708C372.308 3.636 372.4 3.6 372.512 3.6C372.616 3.6 372.704 3.636 372.776 3.708C372.848 3.78 372.884 3.868 372.884 3.972V11.628ZM376.148 6.564V10.584C376.148 10.888 376.204 11.096 376.316 11.208C376.428 11.312 376.576 11.364 376.76 11.364C376.808 11.364 376.868 11.356 376.94 11.34C377.012 11.316 377.068 11.304 377.108 11.304C377.18 11.304 377.24 11.336 377.288 11.4C377.344 11.456 377.372 11.524 377.372 11.604C377.372 11.716 377.308 11.812 377.18 11.892C377.052 11.964 376.9 12 376.724 12C376.508 12 376.316 11.98 376.148 11.94C375.98 11.9 375.816 11.78 375.656 11.58C375.504 11.38 375.428 11.06 375.428 10.62V6.564H374.552C374.456 6.564 374.372 6.532 374.3 6.468C374.236 6.404 374.204 6.324 374.204 6.228C374.204 6.132 374.236 6.052 374.3 5.988C374.372 5.924 374.456 5.892 374.552 5.892H375.428V4.56C375.428 4.456 375.46 4.372 375.524 4.308C375.596 4.236 375.684 4.2 375.788 4.2C375.892 4.2 375.976 4.236 376.04 4.308C376.112 4.372 376.148 4.456 376.148 4.56V5.892H377.348C377.436 5.892 377.512 5.928 377.576 6C377.648 6.072 377.684 6.152 377.684 6.24C377.684 6.336 377.652 6.416 377.588 6.48C377.524 6.536 377.444 6.564 377.348 6.564H376.148ZM384.14 8.58C384.14 8.676 384.104 8.76 384.032 8.832C383.96 8.896 383.876 8.928 383.78 8.928H379.244C379.244 9.408 379.34 9.84 379.532 10.224C379.732 10.6 380.012 10.9 380.372 11.124C380.74 11.34 381.172 11.448 381.668 11.448C382.052 11.448 382.396 11.368 382.7 11.208C383.004 11.048 383.248 10.844 383.432 10.596C383.52 10.524 383.604 10.488 383.684 10.488C383.764 10.488 383.836 10.52 383.9 10.584C383.964 10.648 383.996 10.72 383.996 10.8C383.996 10.888 383.956 10.972 383.876 11.052C383.62 11.364 383.296 11.62 382.904 11.82C382.52 12.02 382.112 12.12 381.68 12.12C381.064 12.12 380.52 11.988 380.048 11.724C379.576 11.46 379.208 11.092 378.944 10.62C378.68 10.14 378.548 9.588 378.548 8.964C378.548 8.308 378.676 7.736 378.932 7.248C379.196 6.752 379.544 6.376 379.976 6.12C380.408 5.856 380.868 5.724 381.356 5.724C381.836 5.724 382.284 5.836 382.7 6.06C383.124 6.284 383.468 6.612 383.732 7.044C383.996 7.476 384.132 7.988 384.14 8.58ZM381.356 6.42C380.892 6.42 380.46 6.58 380.06 6.9C379.668 7.22 379.416 7.68 379.304 8.28H383.396V8.184C383.356 7.824 383.236 7.512 383.036 7.248C382.836 6.976 382.584 6.772 382.28 6.636C381.984 6.492 381.676 6.42 381.356 6.42ZM392.584 5.82C393.304 5.82 393.832 6.044 394.168 6.492C394.512 6.932 394.684 7.516 394.684 8.244V11.64C394.684 11.744 394.648 11.832 394.576 11.904C394.512 11.968 394.428 12 394.324 12C394.22 12 394.132 11.968 394.06 11.904C393.996 11.832 393.964 11.744 393.964 11.64V8.28C393.964 7.752 393.836 7.324 393.58 6.996C393.332 6.66 392.944 6.492 392.416 6.492C392.08 6.492 391.76 6.572 391.456 6.732C391.16 6.892 390.92 7.112 390.736 7.392C390.552 7.664 390.46 7.96 390.46 8.28V11.64C390.46 11.744 390.424 11.832 390.352 11.904C390.288 11.968 390.204 12 390.1 12C389.996 12 389.908 11.968 389.836 11.904C389.772 11.832 389.74 11.744 389.74 11.64V8.244C389.74 7.724 389.62 7.304 389.38 6.984C389.14 6.656 388.764 6.492 388.252 6.492C387.924 6.492 387.612 6.572 387.316 6.732C387.028 6.892 386.792 7.108 386.608 7.38C386.432 7.644 386.344 7.932 386.344 8.244V11.64C386.344 11.744 386.308 11.832 386.236 11.904C386.172 11.968 386.088 12 385.984 12C385.88 12 385.792 11.968 385.72 11.904C385.656 11.832 385.624 11.744 385.624 11.64V6.264C385.624 6.16 385.656 6.076 385.72 6.012C385.792 5.94 385.88 5.904 385.984 5.904C386.088 5.904 386.172 5.94 386.236 6.012C386.308 6.076 386.344 6.16 386.344 6.264V6.96C386.56 6.632 386.852 6.36 387.22 6.144C387.588 5.928 387.976 5.82 388.384 5.82C388.848 5.82 389.248 5.932 389.584 6.156C389.92 6.38 390.16 6.708 390.304 7.14C390.472 6.788 390.78 6.48 391.228 6.216C391.676 5.952 392.128 5.82 392.584 5.82ZM396.221 11.028C396.157 10.924 396.125 10.836 396.125 10.764C396.125 10.66 396.177 10.58 396.281 10.524C396.329 10.476 396.393 10.452 396.473 10.452C396.569 10.452 396.657 10.492 396.737 10.572C397.209 11.196 397.837 11.508 398.621 11.508C399.005 11.508 399.337 11.42 399.617 11.244C399.905 11.06 400.049 10.796 400.049 10.452C400.049 10.116 399.917 9.864 399.653 9.696C399.389 9.528 399.021 9.384 398.549 9.264C397.885 9.096 397.365 8.88 396.989 8.616C396.613 8.344 396.425 7.948 396.425 7.428C396.425 7.1 396.517 6.808 396.701 6.552C396.885 6.288 397.133 6.084 397.445 5.94C397.765 5.796 398.125 5.724 398.525 5.724C398.869 5.724 399.213 5.792 399.557 5.928C399.909 6.056 400.209 6.264 400.457 6.552C400.529 6.608 400.565 6.688 400.565 6.792C400.565 6.888 400.525 6.972 400.445 7.044C400.389 7.092 400.317 7.116 400.229 7.116C400.149 7.116 400.077 7.084 400.013 7.02C399.821 6.804 399.593 6.64 399.329 6.528C399.065 6.416 398.781 6.36 398.477 6.36C398.101 6.36 397.777 6.448 397.505 6.624C397.241 6.8 397.109 7.064 397.109 7.416C397.125 7.736 397.269 7.98 397.541 8.148C397.821 8.316 398.229 8.468 398.765 8.604C399.181 8.708 399.525 8.824 399.797 8.952C400.069 9.08 400.289 9.26 400.457 9.492C400.633 9.724 400.721 10.032 400.721 10.416C400.721 10.936 400.513 11.352 400.097 11.664C399.681 11.968 399.165 12.12 398.549 12.12C397.573 12.12 396.797 11.756 396.221 11.028ZM410.299 11.292C410.403 11.292 410.487 11.324 410.551 11.388C410.623 11.452 410.659 11.536 410.659 11.64C410.659 11.744 410.623 11.832 410.551 11.904C410.487 11.968 410.403 12 410.299 12H406.015C405.911 12 405.823 11.968 405.751 11.904C405.687 11.832 405.655 11.744 405.655 11.64V3.96C405.655 3.856 405.691 3.772 405.763 3.708C405.835 3.636 405.927 3.6 406.039 3.6C406.143 3.6 406.231 3.636 406.303 3.708C406.375 3.772 406.411 3.856 406.411 3.96V11.292H410.299ZM412.558 11.64C412.558 11.744 412.522 11.832 412.45 11.904C412.386 11.968 412.302 12 412.198 12C412.094 12 412.006 11.968 411.934 11.904C411.87 11.832 411.838 11.744 411.838 11.64V6.12C411.838 6.016 411.87 5.932 411.934 5.868C412.006 5.796 412.094 5.76 412.198 5.76C412.302 5.76 412.386 5.796 412.45 5.868C412.522 5.932 412.558 6.016 412.558 6.12V11.64ZM412.198 4.956C412.038 4.956 411.914 4.92 411.826 4.848C411.738 4.768 411.694 4.656 411.694 4.512V4.392C411.694 4.248 411.738 4.14 411.826 4.068C411.922 3.988 412.05 3.948 412.21 3.948C412.53 3.948 412.69 4.096 412.69 4.392V4.512C412.69 4.656 412.646 4.768 412.558 4.848C412.478 4.92 412.358 4.956 412.198 4.956ZM414.08 11.028C414.016 10.924 413.984 10.836 413.984 10.764C413.984 10.66 414.036 10.58 414.14 10.524C414.188 10.476 414.252 10.452 414.332 10.452C414.428 10.452 414.516 10.492 414.596 10.572C415.068 11.196 415.696 11.508 416.48 11.508C416.864 11.508 417.196 11.42 417.476 11.244C417.764 11.06 417.908 10.796 417.908 10.452C417.908 10.116 417.776 9.864 417.512 9.696C417.248 9.528 416.88 9.384 416.408 9.264C415.744 9.096 415.224 8.88 414.848 8.616C414.472 8.344 414.284 7.948 414.284 7.428C414.284 7.1 414.376 6.808 414.56 6.552C414.744 6.288 414.992 6.084 415.304 5.94C415.624 5.796 415.984 5.724 416.384 5.724C416.728 5.724 417.072 5.792 417.416 5.928C417.768 6.056 418.068 6.264 418.316 6.552C418.388 6.608 418.424 6.688 418.424 6.792C418.424 6.888 418.384 6.972 418.304 7.044C418.248 7.092 418.176 7.116 418.088 7.116C418.008 7.116 417.936 7.084 417.872 7.02C417.68 6.804 417.452 6.64 417.188 6.528C416.924 6.416 416.64 6.36 416.336 6.36C415.96 6.36 415.636 6.448 415.364 6.624C415.1 6.8 414.968 7.064 414.968 7.416C414.984 7.736 415.128 7.98 415.4 8.148C415.68 8.316 416.088 8.468 416.624 8.604C417.04 8.708 417.384 8.824 417.656 8.952C417.928 9.08 418.148 9.26 418.316 9.492C418.492 9.724 418.58 10.032 418.58 10.416C418.58 10.936 418.372 11.352 417.956 11.664C417.54 11.968 417.024 12.12 416.408 12.12C415.432 12.12 414.656 11.756 414.08 11.028ZM421.253 6.564V10.584C421.253 10.888 421.309 11.096 421.421 11.208C421.533 11.312 421.681 11.364 421.865 11.364C421.913 11.364 421.973 11.356 422.045 11.34C422.117 11.316 422.173 11.304 422.213 11.304C422.285 11.304 422.345 11.336 422.393 11.4C422.449 11.456 422.477 11.524 422.477 11.604C422.477 11.716 422.413 11.812 422.285 11.892C422.157 11.964 422.005 12 421.829 12C421.613 12 421.421 11.98 421.253 11.94C421.085 11.9 420.921 11.78 420.761 11.58C420.609 11.38 420.533 11.06 420.533 10.62V6.564H419.657C419.561 6.564 419.477 6.532 419.405 6.468C419.341 6.404 419.309 6.324 419.309 6.228C419.309 6.132 419.341 6.052 419.405 5.988C419.477 5.924 419.561 5.892 419.657 5.892H420.533V4.56C420.533 4.456 420.565 4.372 420.629 4.308C420.701 4.236 420.789 4.2 420.893 4.2C420.997 4.2 421.081 4.236 421.145 4.308C421.217 4.372 421.253 4.456 421.253 4.56V5.892H422.453C422.541 5.892 422.617 5.928 422.681 6C422.753 6.072 422.789 6.152 422.789 6.24C422.789 6.336 422.757 6.416 422.693 6.48C422.629 6.536 422.549 6.564 422.453 6.564H421.253ZM429.245 8.58C429.245 8.676 429.209 8.76 429.137 8.832C429.065 8.896 428.981 8.928 428.885 8.928H424.349C424.349 9.408 424.445 9.84 424.637 10.224C424.837 10.6 425.117 10.9 425.477 11.124C425.845 11.34 426.277 11.448 426.773 11.448C427.157 11.448 427.501 11.368 427.805 11.208C428.109 11.048 428.353 10.844 428.537 10.596C428.625 10.524 428.709 10.488 428.789 10.488C428.869 10.488 428.941 10.52 429.005 10.584C429.069 10.648 429.101 10.72 429.101 10.8C429.101 10.888 429.061 10.972 428.981 11.052C428.725 11.364 428.401 11.62 428.009 11.82C427.625 12.02 427.217 12.12 426.785 12.12C426.169 12.12 425.625 11.988 425.153 11.724C424.681 11.46 424.313 11.092 424.049 10.62C423.785 10.14 423.653 9.588 423.653 8.964C423.653 8.308 423.781 7.736 424.037 7.248C424.301 6.752 424.649 6.376 425.081 6.12C425.513 5.856 425.973 5.724 426.461 5.724C426.941 5.724 427.389 5.836 427.805 6.06C428.229 6.284 428.573 6.612 428.837 7.044C429.101 7.476 429.237 7.988 429.245 8.58ZM426.461 6.42C425.997 6.42 425.565 6.58 425.165 6.9C424.773 7.22 424.521 7.68 424.409 8.28H428.501V8.184C428.461 7.824 428.341 7.512 428.141 7.248C427.941 6.976 427.689 6.772 427.385 6.636C427.089 6.492 426.781 6.42 426.461 6.42ZM435.709 3.12C435.813 3.12 435.897 3.156 435.961 3.228C436.033 3.292 436.069 3.376 436.069 3.48V11.64C436.069 11.744 436.033 11.832 435.961 11.904C435.897 11.968 435.813 12 435.709 12C435.605 12 435.517 11.968 435.445 11.904C435.381 11.832 435.349 11.744 435.349 11.64V10.8C435.149 11.168 434.849 11.48 434.449 11.736C434.057 11.992 433.621 12.12 433.141 12.12C432.613 12.12 432.133 11.984 431.701 11.712C431.277 11.432 430.941 11.048 430.693 10.56C430.445 10.072 430.321 9.524 430.321 8.916C430.321 8.316 430.445 7.772 430.693 7.284C430.941 6.796 431.277 6.416 431.701 6.144C432.133 5.864 432.609 5.724 433.129 5.724C433.601 5.724 434.037 5.844 434.437 6.084C434.837 6.316 435.141 6.62 435.349 6.996V3.48C435.349 3.376 435.381 3.292 435.445 3.228C435.517 3.156 435.605 3.12 435.709 3.12ZM433.213 11.448C433.629 11.448 434.001 11.34 434.329 11.124C434.665 10.908 434.925 10.608 435.109 10.224C435.301 9.832 435.397 9.396 435.397 8.916C435.397 8.444 435.301 8.016 435.109 7.632C434.925 7.248 434.665 6.948 434.329 6.732C434.001 6.508 433.629 6.396 433.213 6.396C432.797 6.396 432.421 6.508 432.085 6.732C431.757 6.948 431.497 7.248 431.305 7.632C431.121 8.016 431.029 8.444 431.029 8.916C431.029 9.396 431.121 9.828 431.305 10.212C431.497 10.596 431.757 10.9 432.085 11.124C432.421 11.34 432.797 11.448 433.213 11.448Z" fill="black"/>
<circle cx="406" cy="38" r="9.25" fill="white" stroke="#007777" stroke-width="1.5"/>
<path d="M407.82 38.736C407.916 38.736 407.996 38.768 408.06 38.832C408.132 38.896 408.168 38.976 408.168 39.072C408.168 39.168 408.132 39.248 408.06 39.312C407.996 39.376 407.916 39.408 407.82 39.408H407.016V41.64C407.016 41.744 406.98 41.832 406.908 41.904C406.836 41.968 406.748 42 406.644 42C406.54 42 406.456 41.968 406.392 41.904C406.328 41.832 406.296 41.744 406.296 41.64V39.408H402.768C402.672 39.408 402.588 39.372 402.516 39.3C402.444 39.22 402.408 39.132 402.408 39.036C402.408 38.94 402.436 38.86 402.492 38.796L406.356 33.744C406.42 33.648 406.52 33.6 406.656 33.6C406.76 33.6 406.844 33.636 406.908 33.708C406.98 33.772 407.016 33.856 407.016 33.96V38.736H407.82ZM406.296 38.736V34.896L403.392 38.736H406.296Z" fill="black"/>
<path d="M510.884 11.628C510.876 11.732 510.836 11.82 510.764 11.892C510.692 11.964 510.604 12 510.5 12C510.388 12 510.296 11.968 510.224 11.904C510.16 11.832 510.128 11.74 510.128 11.628V3.972C510.128 3.86 510.164 3.772 510.236 3.708C510.308 3.636 510.4 3.6 510.512 3.6C510.616 3.6 510.704 3.636 510.776 3.708C510.848 3.78 510.884 3.868 510.884 3.972V11.628ZM514.148 6.564V10.584C514.148 10.888 514.204 11.096 514.316 11.208C514.428 11.312 514.576 11.364 514.76 11.364C514.808 11.364 514.868 11.356 514.94 11.34C515.012 11.316 515.068 11.304 515.108 11.304C515.18 11.304 515.24 11.336 515.288 11.4C515.344 11.456 515.372 11.524 515.372 11.604C515.372 11.716 515.308 11.812 515.18 11.892C515.052 11.964 514.9 12 514.724 12C514.508 12 514.316 11.98 514.148 11.94C513.98 11.9 513.816 11.78 513.656 11.58C513.504 11.38 513.428 11.06 513.428 10.62V6.564H512.552C512.456 6.564 512.372 6.532 512.3 6.468C512.236 6.404 512.204 6.324 512.204 6.228C512.204 6.132 512.236 6.052 512.3 5.988C512.372 5.924 512.456 5.892 512.552 5.892H513.428V4.56C513.428 4.456 513.46 4.372 513.524 4.308C513.596 4.236 513.684 4.2 513.788 4.2C513.892 4.2 513.976 4.236 514.04 4.308C514.112 4.372 514.148 4.456 514.148 4.56V5.892H515.348C515.436 5.892 515.512 5.928 515.576 6C515.648 6.072 515.684 6.152 515.684 6.24C515.684 6.336 515.652 6.416 515.588 6.48C515.524 6.536 515.444 6.564 515.348 6.564H514.148ZM522.14 8.58C522.14 8.676 522.104 8.76 522.032 8.832C521.96 8.896 521.876 8.928 521.78 8.928H517.244C517.244 9.408 517.34 9.84 517.532 10.224C517.732 10.6 518.012 10.9 518.372 11.124C518.74 11.34 519.172 11.448 519.668 11.448C520.052 11.448 520.396 11.368 520.7 11.208C521.004 11.048 521.248 10.844 521.432 10.596C521.52 10.524 521.604 10.488 521.684 10.488C521.764 10.488 521.836 10.52 521.9 10.584C521.964 10.648 521.996 10.72 521.996 10.8C521.996 10.888 521.956 10.972 521.876 11.052C521.62 11.364 521.296 11.62 520.904 11.82C520.52 12.02 520.112 12.12 519.68 12.12C519.064 12.12 518.52 11.988 518.048 11.724C517.576 11.46 517.208 11.092 516.944 10.62C516.68 10.14 516.548 9.588 516.548 8.964C516.548 8.308 516.676 7.736 516.932 7.248C517.196 6.752 517.544 6.376 517.976 6.12C518.408 5.856 518.868 5.724 519.356 5.724C519.836 5.724 520.284 5.836 520.7 6.06C521.124 6.284 521.468 6.612 521.732 7.044C521.996 7.476 522.132 7.988 522.14 8.58ZM519.356 6.42C518.892 6.42 518.46 6.58 518.06 6.9C517.668 7.22 517.416 7.68 517.304 8.28H521.396V8.184C521.356 7.824 521.236 7.512 521.036 7.248C520.836 6.976 520.584 6.772 520.28 6.636C519.984 6.492 519.676 6.42 519.356 6.42ZM530.584 5.82C531.304 5.82 531.832 6.044 532.168 6.492C532.512 6.932 532.684 7.516 532.684 8.244V11.64C532.684 11.744 532.648 11.832 532.576 11.904C532.512 11.968 532.428 12 532.324 12C532.22 12 532.132 11.968 532.06 11.904C531.996 11.832 531.964 11.744 531.964 11.64V8.28C531.964 7.752 531.836 7.324 531.58 6.996C531.332 6.66 530.944 6.492 530.416 6.492C530.08 6.492 529.76 6.572 529.456 6.732C529.16 6.892 528.92 7.112 528.736 7.392C528.552 7.664 528.46 7.96 528.46 8.28V11.64C528.46 11.744 528.424 11.832 528.352 11.904C528.288 11.968 528.204 12 528.1 12C527.996 12 527.908 11.968 527.836 11.904C527.772 11.832 527.74 11.744 527.74 11.64V8.244C527.74 7.724 527.62 7.304 527.38 6.984C527.14 6.656 526.764 6.492 526.252 6.492C525.924 6.492 525.612 6.572 525.316 6.732C525.028 6.892 524.792 7.108 524.608 7.38C524.432 7.644 524.344 7.932 524.344 8.244V11.64C524.344 11.744 524.308 11.832 524.236 11.904C524.172 11.968 524.088 12 523.984 12C523.88 12 523.792 11.968 523.72 11.904C523.656 11.832 523.624 11.744 523.624 11.64V6.264C523.624 6.16 523.656 6.076 523.72 6.012C523.792 5.94 523.88 5.904 523.984 5.904C524.088 5.904 524.172 5.94 524.236 6.012C524.308 6.076 524.344 6.16 524.344 6.264V6.96C524.56 6.632 524.852 6.36 525.22 6.144C525.588 5.928 525.976 5.82 526.384 5.82C526.848 5.82 527.248 5.932 527.584 6.156C527.92 6.38 528.16 6.708 528.304 7.14C528.472 6.788 528.78 6.48 529.228 6.216C529.676 5.952 530.128 5.82 530.584 5.82ZM534.221 11.028C534.157 10.924 534.125 10.836 534.125 10.764C534.125 10.66 534.177 10.58 534.281 10.524C534.329 10.476 534.393 10.452 534.473 10.452C534.569 10.452 534.657 10.492 534.737 10.572C535.209 11.196 535.837 11.508 536.621 11.508C537.005 11.508 537.337 11.42 537.617 11.244C537.905 11.06 538.049 10.796 538.049 10.452C538.049 10.116 537.917 9.864 537.653 9.696C537.389 9.528 537.021 9.384 536.549 9.264C535.885 9.096 535.365 8.88 534.989 8.616C534.613 8.344 534.425 7.948 534.425 7.428C534.425 7.1 534.517 6.808 534.701 6.552C534.885 6.288 535.133 6.084 535.445 5.94C535.765 5.796 536.125 5.724 536.525 5.724C536.869 5.724 537.213 5.792 537.557 5.928C537.909 6.056 538.209 6.264 538.457 6.552C538.529 6.608 538.565 6.688 538.565 6.792C538.565 6.888 538.525 6.972 538.445 7.044C538.389 7.092 538.317 7.116 538.229 7.116C538.149 7.116 538.077 7.084 538.013 7.02C537.821 6.804 537.593 6.64 537.329 6.528C537.065 6.416 536.781 6.36 536.477 6.36C536.101 6.36 535.777 6.448 535.505 6.624C535.241 6.8 535.109 7.064 535.109 7.416C535.125 7.736 535.269 7.98 535.541 8.148C535.821 8.316 536.229 8.468 536.765 8.604C537.181 8.708 537.525 8.824 537.797 8.952C538.069 9.08 538.289 9.26 538.457 9.492C538.633 9.724 538.721 10.032 538.721 10.416C538.721 10.936 538.513 11.352 538.097 11.664C537.681 11.968 537.165 12.12 536.549 12.12C535.573 12.12 534.797 11.756 534.221 11.028ZM545.923 12.12C545.347 12.12 544.835 12.024 544.387 11.832C543.947 11.64 543.519 11.34 543.103 10.932C543.007 10.852 542.959 10.756 542.959 10.644C542.959 10.548 542.995 10.46 543.067 10.38C543.147 10.3 543.235 10.26 543.331 10.26C543.427 10.26 543.515 10.3 543.595 10.38C544.219 11.068 544.999 11.412 545.935 11.412C546.511 11.412 546.987 11.276 547.363 11.004C547.747 10.732 547.939 10.376 547.939 9.936C547.939 9.592 547.843 9.308 547.651 9.084C547.467 8.852 547.223 8.664 546.919 8.52C546.615 8.376 546.227 8.228 545.755 8.076C545.243 7.924 544.811 7.756 544.459 7.572C544.115 7.388 543.835 7.144 543.619 6.84C543.403 6.528 543.295 6.136 543.295 5.664C543.295 5.24 543.407 4.864 543.631 4.536C543.863 4.208 544.183 3.952 544.591 3.768C545.007 3.576 545.483 3.48 546.019 3.48C546.507 3.48 546.963 3.564 547.387 3.732C547.819 3.892 548.163 4.124 548.419 4.428C548.539 4.564 548.599 4.68 548.599 4.776C548.599 4.864 548.559 4.948 548.479 5.028C548.399 5.1 548.311 5.136 548.215 5.136C548.135 5.136 548.067 5.108 548.011 5.052C547.795 4.796 547.507 4.588 547.147 4.428C546.787 4.268 546.411 4.188 546.019 4.188C545.435 4.188 544.959 4.32 544.591 4.584C544.223 4.84 544.039 5.192 544.039 5.64C544.039 6.104 544.215 6.46 544.567 6.708C544.919 6.956 545.423 7.184 546.079 7.392C546.647 7.56 547.111 7.732 547.471 7.908C547.831 8.084 548.123 8.336 548.347 8.664C548.579 8.984 548.695 9.408 548.695 9.936C548.695 10.344 548.575 10.716 548.335 11.052C548.103 11.38 547.775 11.64 547.351 11.832C546.935 12.024 546.459 12.12 545.923 12.12ZM555.878 8.928C555.878 9.528 555.746 10.072 555.482 10.56C555.218 11.048 554.854 11.432 554.39 11.712C553.926 11.984 553.41 12.12 552.842 12.12C552.274 12.12 551.758 11.984 551.294 11.712C550.83 11.432 550.466 11.048 550.202 10.56C549.938 10.072 549.806 9.528 549.806 8.928C549.806 8.328 549.938 7.784 550.202 7.296C550.466 6.808 550.83 6.424 551.294 6.144C551.758 5.864 552.274 5.724 552.842 5.724C553.41 5.724 553.926 5.864 554.39 6.144C554.854 6.424 555.218 6.808 555.482 7.296C555.746 7.784 555.878 8.328 555.878 8.928ZM555.158 8.928C555.158 8.448 555.058 8.016 554.858 7.632C554.658 7.248 554.378 6.948 554.018 6.732C553.666 6.508 553.274 6.396 552.842 6.396C552.41 6.396 552.018 6.508 551.666 6.732C551.314 6.948 551.034 7.248 550.826 7.632C550.626 8.016 550.526 8.448 550.526 8.928C550.526 9.4 550.626 9.828 550.826 10.212C551.034 10.596 551.314 10.9 551.666 11.124C552.018 11.34 552.41 11.448 552.842 11.448C553.274 11.448 553.666 11.34 554.018 11.124C554.378 10.908 554.658 10.608 554.858 10.224C555.058 9.84 555.158 9.408 555.158 8.928ZM558.142 11.64C558.142 11.744 558.106 11.832 558.034 11.904C557.97 11.968 557.886 12 557.782 12C557.678 12 557.59 11.968 557.518 11.904C557.454 11.832 557.422 11.744 557.422 11.64V3.48C557.422 3.376 557.454 3.292 557.518 3.228C557.59 3.156 557.678 3.12 557.782 3.12C557.886 3.12 557.97 3.156 558.034 3.228C558.106 3.292 558.142 3.376 558.142 3.48V11.64ZM564.979 3.12C565.083 3.12 565.167 3.156 565.231 3.228C565.303 3.292 565.339 3.376 565.339 3.48V11.64C565.339 11.744 565.303 11.832 565.231 11.904C565.167 11.968 565.083 12 564.979 12C564.875 12 564.787 11.968 564.715 11.904C564.651 11.832 564.619 11.744 564.619 11.64V10.8C564.419 11.168 564.119 11.48 563.719 11.736C563.327 11.992 562.891 12.12 562.411 12.12C561.883 12.12 561.403 11.984 560.971 11.712C560.547 11.432 560.211 11.048 559.963 10.56C559.715 10.072 559.591 9.524 559.591 8.916C559.591 8.316 559.715 7.772 559.963 7.284C560.211 6.796 560.547 6.416 560.971 6.144C561.403 5.864 561.879 5.724 562.399 5.724C562.871 5.724 563.307 5.844 563.707 6.084C564.107 6.316 564.411 6.62 564.619 6.996V3.48C564.619 3.376 564.651 3.292 564.715 3.228C564.787 3.156 564.875 3.12 564.979 3.12ZM562.483 11.448C562.899 11.448 563.271 11.34 563.599 11.124C563.935 10.908 564.195 10.608 564.379 10.224C564.571 9.832 564.667 9.396 564.667 8.916C564.667 8.444 564.571 8.016 564.379 7.632C564.195 7.248 563.935 6.948 563.599 6.732C563.271 6.508 562.899 6.396 562.483 6.396C562.067 6.396 561.691 6.508 561.355 6.732C561.027 6.948 560.767 7.248 560.575 7.632C560.391 8.016 560.299 8.444 560.299 8.916C560.299 9.396 560.391 9.828 560.575 10.212C560.767 10.596 561.027 10.9 561.355 11.124C561.691 11.34 562.067 11.448 562.483 11.448Z" fill="black"/>
<circle cx="538" cy="38" r="9.25" fill="white" stroke="#007777" stroke-width="1.5"/>
<path d="M539.82 38.736C539.916 38.736 539.996 38.768 540.06 38.832C540.132 38.896 540.168 38.976 540.168 39.072C540.168 39.168 540.132 39.248 540.06 39.312C539.996 39.376 539.916 39.408 539.82 39.408H539.016V41.64C539.016 41.744 538.98 41.832 538.908 41.904C538.836 41.968 538.748 42 538.644 42C538.54 42 538.456 41.968 538.392 41.904C538.328 41.832 538.296 41.744 538.296 41.64V39.408H534.768C534.672 39.408 534.588 39.372 534.516 39.3C534.444 39.22 534.408 39.132 534.408 39.036C534.408 38.94 534.436 38.86 534.492 38.796L538.356 33.744C538.42 33.648 538.52 33.6 538.656 33.6C538.76 33.6 538.844 33.636 538.908 33.708C538.98 33.772 539.016 33.856 539.016 33.96V38.736H539.82ZM538.296 38.736V34.896L535.392 38.736H538.296Z" fill="black"/>
<path d="M632.448 3.6C632.544 3.6 632.624 3.636 632.688 3.708C632.76 3.772 632.796 3.856 632.796 3.96V11.64C632.796 11.744 632.76 11.832 632.688 11.904C632.616 11.968 632.528 12 632.424 12C632.312 12 632.22 11.968 632.148 11.904C632.076 11.832 632.04 11.744 632.04 11.64V5.04L629.22 9.312C629.14 9.416 629.048 9.464 628.944 9.456H628.92C628.824 9.456 628.736 9.408 628.656 9.312L625.836 5.016V11.64C625.836 11.744 625.8 11.832 625.728 11.904C625.664 11.968 625.58 12 625.476 12C625.372 12 625.288 11.968 625.224 11.904C625.16 11.832 625.128 11.744 625.128 11.64V3.96C625.128 3.864 625.16 3.78 625.224 3.708C625.296 3.636 625.384 3.6 625.488 3.6C625.544 3.6 625.604 3.616 625.668 3.648C625.732 3.672 625.78 3.708 625.812 3.756L628.956 8.472L632.124 3.756C632.212 3.636 632.32 3.584 632.448 3.6ZM640.538 8.928C640.538 9.528 640.406 10.072 640.142 10.56C639.878 11.048 639.514 11.432 639.05 11.712C638.586 11.984 638.07 12.12 637.502 12.12C636.934 12.12 636.418 11.984 635.954 11.712C635.49 11.432 635.126 11.048 634.862 10.56C634.598 10.072 634.466 9.528 634.466 8.928C634.466 8.328 634.598 7.784 634.862 7.296C635.126 6.808 635.49 6.424 635.954 6.144C636.418 5.864 636.934 5.724 637.502 5.724C638.07 5.724 638.586 5.864 639.05 6.144C639.514 6.424 639.878 6.808 640.142 7.296C640.406 7.784 640.538 8.328 640.538 8.928ZM639.818 8.928C639.818 8.448 639.718 8.016 639.518 7.632C639.318 7.248 639.038 6.948 638.678 6.732C638.326 6.508 637.934 6.396 637.502 6.396C637.07 6.396 636.678 6.508 636.326 6.732C635.974 6.948 635.694 7.248 635.486 7.632C635.286 8.016 635.186 8.448 635.186 8.928C635.186 9.4 635.286 9.828 635.486 10.212C635.694 10.596 635.974 10.9 636.326 11.124C636.678 11.34 637.07 11.448 637.502 11.448C637.934 11.448 638.326 11.34 638.678 11.124C639.038 10.908 639.318 10.608 639.518 10.224C639.718 9.84 639.818 9.408 639.818 8.928ZM644.903 5.724C645.647 5.724 646.191 5.944 646.535 6.384C646.887 6.816 647.062 7.392 647.062 8.112V11.64C647.062 11.744 647.027 11.832 646.955 11.904C646.883 11.968 646.799 12 646.703 12C646.599 12 646.511 11.968 646.439 11.904C646.375 11.832 646.343 11.744 646.343 11.64V8.148C646.343 7.628 646.211 7.208 645.947 6.888C645.691 6.56 645.291 6.396 644.747 6.396C644.403 6.396 644.075 6.476 643.763 6.636C643.459 6.796 643.211 7.012 643.019 7.284C642.827 7.548 642.731 7.836 642.731 8.148V11.64C642.731 11.744 642.695 11.832 642.623 11.904C642.559 11.968 642.475 12 642.371 12C642.267 12 642.179 11.968 642.107 11.904C642.043 11.832 642.011 11.744 642.011 11.64V6.264C642.011 6.16 642.043 6.076 642.107 6.012C642.179 5.94 642.267 5.904 642.371 5.904C642.475 5.904 642.559 5.94 642.623 6.012C642.695 6.076 642.731 6.16 642.731 6.264V6.924C642.947 6.58 643.255 6.296 643.655 6.072C644.063 5.84 644.479 5.724 644.903 5.724ZM654.132 8.58C654.132 8.676 654.096 8.76 654.024 8.832C653.952 8.896 653.868 8.928 653.772 8.928H649.236C649.236 9.408 649.332 9.84 649.524 10.224C649.724 10.6 650.004 10.9 650.364 11.124C650.732 11.34 651.164 11.448 651.66 11.448C652.044 11.448 652.388 11.368 652.692 11.208C652.996 11.048 653.24 10.844 653.424 10.596C653.512 10.524 653.596 10.488 653.676 10.488C653.756 10.488 653.828 10.52 653.892 10.584C653.956 10.648 653.988 10.72 653.988 10.8C653.988 10.888 653.948 10.972 653.868 11.052C653.612 11.364 653.288 11.62 652.896 11.82C652.512 12.02 652.104 12.12 651.672 12.12C651.056 12.12 650.512 11.988 650.04 11.724C649.568 11.46 649.2 11.092 648.936 10.62C648.672 10.14 648.54 9.588 648.54 8.964C648.54 8.308 648.668 7.736 648.924 7.248C649.188 6.752 649.536 6.376 649.968 6.12C650.4 5.856 650.86 5.724 651.348 5.724C651.828 5.724 652.276 5.836 652.692 6.06C653.116 6.284 653.46 6.612 653.724 7.044C653.988 7.476 654.124 7.988 654.132 8.58ZM651.348 6.42C650.884 6.42 650.452 6.58 650.052 6.9C649.66 7.22 649.408 7.68 649.296 8.28H653.388V8.184C653.348 7.824 653.228 7.512 653.028 7.248C652.828 6.976 652.576 6.772 652.272 6.636C651.976 6.492 651.668 6.42 651.348 6.42ZM660.129 5.76C660.233 5.76 660.317 5.796 660.381 5.868C660.453 5.932 660.489 6.016 660.489 6.12V11.412C660.489 12.044 660.365 12.584 660.117 13.032C659.869 13.48 659.525 13.82 659.085 14.052C658.645 14.284 658.149 14.4 657.597 14.4C657.261 14.4 656.945 14.364 656.649 14.292C656.361 14.22 656.121 14.124 655.929 14.004C655.761 13.9 655.677 13.784 655.677 13.656C655.677 13.64 655.685 13.6 655.701 13.536C655.725 13.456 655.765 13.396 655.821 13.356C655.877 13.316 655.937 13.296 656.001 13.296C656.049 13.296 656.097 13.308 656.145 13.332C656.657 13.612 657.145 13.752 657.609 13.752C658.273 13.752 658.797 13.544 659.181 13.128C659.573 12.712 659.769 12.144 659.769 11.424V11.004C659.569 11.34 659.281 11.612 658.905 11.82C658.529 12.02 658.121 12.12 657.681 12.12C656.985 12.12 656.457 11.912 656.097 11.496C655.737 11.08 655.557 10.516 655.557 9.804V6.12C655.557 6.016 655.589 5.932 655.653 5.868C655.725 5.796 655.813 5.76 655.917 5.76C656.021 5.76 656.105 5.796 656.169 5.868C656.241 5.932 656.277 6.016 656.277 6.12V9.696C656.277 10.272 656.401 10.708 656.649 11.004C656.905 11.3 657.301 11.448 657.837 11.448C658.165 11.448 658.477 11.368 658.773 11.208C659.077 11.04 659.317 10.824 659.493 10.56C659.677 10.288 659.769 10 659.769 9.696V6.12C659.769 6.016 659.801 5.932 659.865 5.868C659.937 5.796 660.025 5.76 660.129 5.76ZM671.971 11.352C672.091 11.432 672.151 11.532 672.151 11.652C672.151 11.692 672.135 11.744 672.103 11.808C672.071 11.864 672.027 11.908 671.971 11.94C671.915 11.972 671.855 11.988 671.791 11.988C671.711 11.988 671.643 11.972 671.587 11.94C671.363 11.812 671.183 11.604 671.047 11.316C670.911 11.028 670.843 10.568 670.843 9.936C670.843 9.376 670.687 8.984 670.375 8.76C670.063 8.528 669.691 8.412 669.259 8.412H666.595V11.64C666.595 11.744 666.563 11.832 666.499 11.904C666.435 11.968 666.351 12 666.247 12C666.135 12 666.039 11.968 665.959 11.904C665.879 11.832 665.839 11.744 665.839 11.64V3.96C665.839 3.856 665.871 3.772 665.935 3.708C666.007 3.636 666.095 3.6 666.199 3.6H669.439C669.895 3.6 670.303 3.7 670.663 3.9C671.023 4.092 671.303 4.36 671.503 4.704C671.711 5.048 671.815 5.436 671.815 5.868C671.815 6.38 671.679 6.832 671.407 7.224C671.143 7.608 670.795 7.872 670.363 8.016C670.715 8.152 671.003 8.384 671.227 8.712C671.451 9.032 671.567 9.424 671.575 9.888C671.583 10.384 671.615 10.732 671.671 10.932C671.735 11.132 671.835 11.272 671.971 11.352ZM669.475 7.752C669.755 7.728 670.015 7.636 670.255 7.476C670.495 7.316 670.687 7.1 670.831 6.828C670.975 6.556 671.047 6.244 671.047 5.892C671.047 5.436 670.891 5.06 670.579 4.764C670.275 4.46 669.875 4.308 669.379 4.308H666.595V7.752H669.475ZM678.823 8.58C678.823 8.676 678.787 8.76 678.715 8.832C678.643 8.896 678.559 8.928 678.463 8.928H673.927C673.927 9.408 674.023 9.84 674.215 10.224C674.415 10.6 674.695 10.9 675.055 11.124C675.423 11.34 675.855 11.448 676.351 11.448C676.735 11.448 677.079 11.368 677.383 11.208C677.687 11.048 677.931 10.844 678.115 10.596C678.203 10.524 678.287 10.488 678.367 10.488C678.447 10.488 678.519 10.52 678.583 10.584C678.647 10.648 678.679 10.72 678.679 10.8C678.679 10.888 678.639 10.972 678.559 11.052C678.303 11.364 677.979 11.62 677.587 11.82C677.203 12.02 676.795 12.12 676.363 12.12C675.747 12.12 675.203 11.988 674.731 11.724C674.259 11.46 673.891 11.092 673.627 10.62C673.363 10.14 673.231 9.588 673.231 8.964C673.231 8.308 673.359 7.736 673.615 7.248C673.879 6.752 674.227 6.376 674.659 6.12C675.091 5.856 675.551 5.724 676.039 5.724C676.519 5.724 676.967 5.836 677.383 6.06C677.807 6.284 678.151 6.612 678.415 7.044C678.679 7.476 678.815 7.988 678.823 8.58ZM676.039 6.42C675.575 6.42 675.143 6.58 674.743 6.9C674.351 7.22 674.099 7.68 673.987 8.28H678.079V8.184C678.039 7.824 677.919 7.512 677.719 7.248C677.519 6.976 677.267 6.772 676.963 6.636C676.667 6.492 676.359 6.42 676.039 6.42ZM682.959 5.724C683.335 5.724 683.683 5.768 684.003 5.856C684.331 5.936 684.591 6.048 684.783 6.192C684.983 6.336 685.083 6.492 685.083 6.66C685.083 6.748 685.051 6.828 684.987 6.9C684.931 6.972 684.859 7.008 684.771 7.008C684.691 7.008 684.623 6.992 684.567 6.96C684.519 6.928 684.463 6.88 684.399 6.816C684.295 6.712 684.195 6.636 684.099 6.588C683.979 6.532 683.819 6.488 683.619 6.456C683.427 6.416 683.219 6.396 682.995 6.396C682.555 6.396 682.151 6.508 681.783 6.732C681.423 6.956 681.139 7.26 680.931 7.644C680.723 8.028 680.619 8.452 680.619 8.916C680.619 9.396 680.719 9.828 680.919 10.212C681.119 10.596 681.395 10.9 681.747 11.124C682.107 11.34 682.515 11.448 682.971 11.448C683.259 11.448 683.487 11.424 683.655 11.376C683.831 11.328 684.003 11.26 684.171 11.172C684.227 11.14 684.323 11.068 684.459 10.956C684.523 10.9 684.579 10.86 684.627 10.836C684.675 10.804 684.727 10.788 684.783 10.788C684.879 10.788 684.955 10.82 685.011 10.884C685.067 10.94 685.095 11.016 685.095 11.112C685.095 11.248 684.999 11.396 684.807 11.556C684.615 11.708 684.351 11.84 684.015 11.952C683.679 12.064 683.307 12.12 682.899 12.12C682.315 12.12 681.795 11.984 681.339 11.712C680.883 11.432 680.527 11.048 680.271 10.56C680.023 10.072 679.899 9.524 679.899 8.916C679.899 8.332 680.027 7.8 680.283 7.32C680.539 6.832 680.899 6.444 681.363 6.156C681.827 5.868 682.359 5.724 682.959 5.724ZM691.655 8.58C691.655 8.676 691.619 8.76 691.547 8.832C691.475 8.896 691.391 8.928 691.295 8.928H686.759C686.759 9.408 686.855 9.84 687.047 10.224C687.247 10.6 687.527 10.9 687.887 11.124C688.255 11.34 688.687 11.448 689.183 11.448C689.567 11.448 689.911 11.368 690.215 11.208C690.519 11.048 690.763 10.844 690.947 10.596C691.035 10.524 691.119 10.488 691.199 10.488C691.279 10.488 691.351 10.52 691.415 10.584C691.479 10.648 691.511 10.72 691.511 10.8C691.511 10.888 691.471 10.972 691.391 11.052C691.135 11.364 690.811 11.62 690.419 11.82C690.035 12.02 689.627 12.12 689.195 12.12C688.579 12.12 688.035 11.988 687.563 11.724C687.091 11.46 686.723 11.092 686.459 10.62C686.195 10.14 686.063 9.588 686.063 8.964C686.063 8.308 686.191 7.736 686.447 7.248C686.711 6.752 687.059 6.376 687.491 6.12C687.923 5.856 688.383 5.724 688.871 5.724C689.351 5.724 689.799 5.836 690.215 6.06C690.639 6.284 690.983 6.612 691.247 7.044C691.511 7.476 691.647 7.988 691.655 8.58ZM688.871 6.42C688.407 6.42 687.975 6.58 687.575 6.9C687.183 7.22 686.931 7.68 686.819 8.28H690.911V8.184C690.871 7.824 690.751 7.512 690.551 7.248C690.351 6.976 690.099 6.772 689.795 6.636C689.499 6.492 689.191 6.42 688.871 6.42ZM693.835 11.64C693.835 11.744 693.799 11.832 693.727 11.904C693.663 11.968 693.579 12 693.475 12C693.371 12 693.283 11.968 693.211 11.904C693.147 11.832 693.115 11.744 693.115 11.64V6.12C693.115 6.016 693.147 5.932 693.211 5.868C693.283 5.796 693.371 5.76 693.475 5.76C693.579 5.76 693.663 5.796 693.727 5.868C693.799 5.932 693.835 6.016 693.835 6.12V11.64ZM693.475 4.956C693.315 4.956 693.191 4.92 693.103 4.848C693.015 4.768 692.971 4.656 692.971 4.512V4.392C692.971 4.248 693.015 4.14 693.103 4.068C693.199 3.988 693.327 3.948 693.487 3.948C693.807 3.948 693.967 4.096 693.967 4.392V4.512C693.967 4.656 693.923 4.768 693.835 4.848C693.755 4.92 693.635 4.956 693.475 4.956ZM700.338 5.748C700.418 5.748 700.494 5.776 700.566 5.832C700.638 5.888 700.674 5.96 700.674 6.048C700.674 6.12 700.658 6.188 700.626 6.252L698.274 11.772C698.242 11.836 698.194 11.892 698.13 11.94C698.074 11.98 698.014 12 697.95 12C697.87 12.008 697.798 11.992 697.734 11.952C697.67 11.912 697.622 11.852 697.59 11.772L695.226 6.252C695.226 6.236 695.218 6.212 695.202 6.18C695.194 6.148 695.19 6.116 695.19 6.084C695.19 5.988 695.222 5.908 695.286 5.844C695.35 5.772 695.442 5.736 695.562 5.736C695.634 5.736 695.698 5.76 695.754 5.808C695.818 5.848 695.866 5.904 695.898 5.976L697.938 10.836L699.99 5.976C700.022 5.904 700.066 5.848 700.122 5.808C700.186 5.76 700.258 5.74 700.338 5.748ZM707.183 8.58C707.183 8.676 707.147 8.76 707.075 8.832C707.003 8.896 706.919 8.928 706.823 8.928H702.287C702.287 9.408 702.383 9.84 702.575 10.224C702.775 10.6 703.055 10.9 703.415 11.124C703.783 11.34 704.215 11.448 704.711 11.448C705.095 11.448 705.439 11.368 705.743 11.208C706.047 11.048 706.291 10.844 706.475 10.596C706.563 10.524 706.647 10.488 706.727 10.488C706.807 10.488 706.879 10.52 706.943 10.584C707.007 10.648 707.039 10.72 707.039 10.8C707.039 10.888 706.999 10.972 706.919 11.052C706.663 11.364 706.339 11.62 705.947 11.82C705.563 12.02 705.155 12.12 704.723 12.12C704.107 12.12 703.563 11.988 703.091 11.724C702.619 11.46 702.251 11.092 701.987 10.62C701.723 10.14 701.591 9.588 701.591 8.964C701.591 8.308 701.719 7.736 701.975 7.248C702.239 6.752 702.587 6.376 703.019 6.12C703.451 5.856 703.911 5.724 704.399 5.724C704.879 5.724 705.327 5.836 705.743 6.06C706.167 6.284 706.511 6.612 706.775 7.044C707.039 7.476 707.175 7.988 707.183 8.58ZM704.399 6.42C703.935 6.42 703.503 6.58 703.103 6.9C702.711 7.22 702.459 7.68 702.347 8.28H706.439V8.184C706.399 7.824 706.279 7.512 706.079 7.248C705.879 6.976 705.627 6.772 705.323 6.636C705.027 6.492 704.719 6.42 704.399 6.42ZM713.647 3.12C713.751 3.12 713.835 3.156 713.899 3.228C713.971 3.292 714.007 3.376 714.007 3.48V11.64C714.007 11.744 713.971 11.832 713.899 11.904C713.835 11.968 713.751 12 713.647 12C713.543 12 713.455 11.968 713.383 11.904C713.319 11.832 713.287 11.744 713.287 11.64V10.8C713.087 11.168 712.787 11.48 712.387 11.736C711.995 11.992 711.559 12.12 711.079 12.12C710.551 12.12 710.071 11.984 709.639 11.712C709.215 11.432 708.879 11.048 708.631 10.56C708.383 10.072 708.259 9.524 708.259 8.916C708.259 8.316 708.383 7.772 708.631 7.284C708.879 6.796 709.215 6.416 709.639 6.144C710.071 5.864 710.547 5.724 711.067 5.724C711.539 5.724 711.975 5.844 712.375 6.084C712.775 6.316 713.079 6.62 713.287 6.996V3.48C713.287 3.376 713.319 3.292 713.383 3.228C713.455 3.156 713.543 3.12 713.647 3.12ZM711.151 11.448C711.567 11.448 711.939 11.34 712.267 11.124C712.603 10.908 712.863 10.608 713.047 10.224C713.239 9.832 713.335 9.396 713.335 8.916C713.335 8.444 713.239 8.016 713.047 7.632C712.863 7.248 712.603 6.948 712.267 6.732C711.939 6.508 711.567 6.396 711.151 6.396C710.735 6.396 710.359 6.508 710.023 6.732C709.695 6.948 709.435 7.248 709.243 7.632C709.059 8.016 708.967 8.444 708.967 8.916C708.967 9.396 709.059 9.828 709.243 10.212C709.435 10.596 709.695 10.9 710.023 11.124C710.359 11.34 710.735 11.448 711.151 11.448Z" fill="black"/>
<circle cx="670" cy="38" r="9.25" fill="white" stroke="#007777" stroke-width="1.5"/>
<path d="M671.82 38.736C671.916 38.736 671.996 38.768 672.06 38.832C672.132 38.896 672.168 38.976 672.168 39.072C672.168 39.168 672.132 39.248 672.06 39.312C671.996 39.376 671.916 39.408 671.82 39.408H671.016V41.64C671.016 41.744 670.98 41.832 670.908 41.904C670.836 41.968 670.748 42 670.644 42C670.54 42 670.456 41.968 670.392 41.904C670.328 41.832 670.296 41.744 670.296 41.64V39.408H666.768C666.672 39.408 666.588 39.372 666.516 39.3C666.444 39.22 666.408 39.132 666.408 39.036C666.408 38.94 666.436 38.86 666.492 38.796L670.356 33.744C670.42 33.648 670.52 33.6 670.656 33.6C670.76 33.6 670.844 33.636 670.908 33.708C670.98 33.772 671.016 33.856 671.016 33.96V38.736H671.82ZM670.296 38.736V34.896L667.392 38.736H670.296Z" fill="black"/>
</svg>
