<svg width="205" height="41" viewBox="0 0 205 41" fill="none" xmlns="http://www.w3.org/2000/svg">
<path fill-rule="evenodd" clip-rule="evenodd" d="M38.3763 0.662536C37.4389 1.01787 35.6972 1.32146 34.5051 1.33659C31.9877 1.36832 32.3339 2.1849 34.9677 2.42748L36.672 2.58416L36.7996 20.96L36.9272 39.3358L35.0953 39.8229C33.596 40.2222 34.4083 40.3198 39.5693 40.3613C43.4312 40.392 45.6959 40.2368 45.4125 39.961C45.1578 39.7131 44.2926 39.4388 43.4891 39.3509L42.0283 39.1913V29.0223V18.8538L43.6186 17.4301C45.4076 15.8286 47.3671 15.5939 49.5409 16.7209C50.299 17.1138 51.082 17.8274 51.2817 18.3072C51.7623 19.4625 52.2268 36.5536 51.8217 38.1717C51.5714 39.1703 51.2067 39.4354 50.0823 39.4354C49.2998 39.4354 48.524 39.655 48.3585 39.9235C48.1642 40.2388 50.1388 40.4116 53.9296 40.4116C57.5198 40.4116 59.8016 40.2217 59.8016 39.9235C59.8016 39.655 59.1442 39.4354 58.3408 39.4354H56.8799L56.877 31.5038C56.8736 21.3387 56.3838 18.213 54.4993 16.3236C52.0739 13.8929 46.1366 13.8875 43.2598 16.3138L41.7848 17.558V9.50097C41.7848 5.06955 41.6519 1.09645 41.4893 0.671805C41.1474 -0.221895 40.7111 -0.22287 38.3763 0.662536ZM0.154253 5.23404C-0.176863 9.87485 0.0120683 11.4206 0.847648 10.9033C1.05995 10.772 1.37305 9.64154 1.54397 8.39153C1.91355 5.68895 3.33784 3.1977 4.92818 2.47141C5.55925 2.18295 7.5367 1.79052 9.32229 1.5987L12.5687 1.2502V19.8374C12.5687 37.7148 12.5327 38.444 11.627 38.9302C11.1089 39.2079 10.0133 39.4354 9.19228 39.4354C8.3713 39.4354 7.69933 39.655 7.69933 39.9235C7.69933 40.2285 10.6209 40.4116 15.4903 40.4116C22.8956 40.4116 25.6356 39.8805 21.2634 39.2924C20.1537 39.1435 19.0615 38.7301 18.836 38.3742C18.6111 38.0184 18.4236 29.5456 18.4192 19.5455L18.4119 1.36392H21.3491C26.7283 1.36392 28.8591 3.05273 29.8681 8.11624C30.1646 9.60445 30.7007 10.9204 31.0591 11.0399C31.5801 11.2142 31.6473 10.6397 31.3922 8.1919C31.2159 6.50553 31.0723 4.05967 31.0723 2.75646V0.387735H15.7864H0.500463L0.154253 5.23404ZM97.1184 2.6525C96.6646 5.97058 96.741 11.1258 97.2435 11.1258C97.785 11.1258 98.2661 9.91878 98.2802 8.52331C98.2973 6.84768 100.027 3.46127 101.272 2.66811C101.897 2.26983 103.997 1.7915 105.939 1.60455L109.469 1.26484V19.8447C109.469 37.7148 109.433 38.444 108.527 38.9302C108.009 39.2079 106.914 39.4354 106.093 39.4354C105.272 39.4354 104.6 39.655 104.6 39.9235C104.6 40.2275 107.431 40.4116 112.118 40.4116C116.606 40.4116 119.758 40.2149 119.938 39.9235C120.114 39.6379 119.608 39.4354 118.717 39.4354C117.881 39.4354 116.772 39.2079 116.254 38.9302C115.348 38.444 115.312 37.7153 115.312 19.8945V1.36392H118.249C123.676 1.36392 125.926 3.34022 126.721 8.80739C126.953 10.401 127.288 11.1258 127.794 11.1258C128.395 11.1258 128.479 10.6338 128.251 8.44131C128.098 6.96483 127.847 4.54875 127.694 3.07226L127.416 0.387735H112.422H97.4281L97.1184 2.6525ZM68.8055 15.4528C63.3284 17.947 60.4745 25.5154 62.4466 32.3165C63.4585 35.8054 66.7784 39.3914 69.8402 40.3032C72.6888 41.151 76.3194 41.0402 78.292 40.0445C80.0591 39.1528 83.1745 35.4701 83.1745 34.2723C83.1745 33.0428 82.4762 33.5289 81.0953 35.7205C79.4601 38.3142 77.6575 39.1498 74.3765 38.8335C69.6474 38.3782 67.1056 34.2064 67.1056 26.9001V23.3282L74.5314 23.3209C78.6153 23.3165 82.2566 23.1232 82.6228 22.8909C83.4559 22.3618 82.6783 19.6753 81.1157 17.6844C78.7921 14.7236 72.7945 13.6366 68.8055 15.4528ZM164.736 15.6251C163.141 16.1747 161.588 16.366 160.232 16.1801C158.867 15.9926 158.163 16.081 158.163 16.4392C158.163 16.7384 158.662 16.983 159.271 16.983C159.881 16.983 160.868 17.3251 161.463 17.7429C162.524 18.4878 162.545 18.7074 162.545 28.9403V39.3778L160.476 39.8424C158.779 40.2236 159.567 40.3164 164.858 40.3593C168.595 40.3896 171.31 40.2188 171.31 39.9527C171.31 39.7009 170.488 39.4261 169.484 39.3426L167.658 39.1913V29.6735C167.658 20.9614 167.742 20.0111 168.656 18.4473C169.415 17.1465 170.025 16.7023 171.212 16.5862C172.703 16.4397 173.31 17.0791 172.284 17.7151C171.611 18.132 171.672 20.0795 172.381 20.7901C173.964 22.3764 177.153 20.713 177.153 18.3013C177.153 16.943 174.518 14.5425 173.027 14.5425C171.308 14.5425 169.043 15.7696 168.288 17.1099C167.692 18.1705 167.666 18.152 167.422 16.4949L167.171 14.7866L164.736 15.6251ZM184.263 15.5187C183.486 16.0161 181.788 16.5701 180.489 16.7492C177.637 17.1421 177.358 17.9592 180.075 17.9592H182.022V28.6973V39.4354H180.59C179.803 39.4354 179.023 39.655 178.857 39.9235C178.663 40.2388 180.638 40.4116 184.428 40.4116C188.019 40.4116 190.3 40.2217 190.3 39.9235C190.3 39.655 189.533 39.4354 188.596 39.4354H186.892V29.5383C186.892 18.7162 187.012 18.191 189.819 16.736C191.831 15.6929 193.452 15.8325 195.021 17.1841L196.387 18.3609L196.536 28.8984L196.684 39.4354H194.982C194.045 39.4354 193.144 39.655 192.979 39.9235C192.784 40.2388 194.84 40.4116 198.793 40.4116C202.545 40.4116 204.908 40.2232 204.908 39.9235C204.908 39.655 204.142 39.4354 203.204 39.4354H201.5L201.497 30.0395C201.494 19.8823 201.167 17.7566 199.34 16.0361C196.981 13.8148 191.401 14.0915 188.586 16.5696L186.892 18.0602V16.3016C186.892 14.3092 186.385 14.1584 184.263 15.5187ZM129.92 15.588C129.92 15.8184 130.534 16.0068 131.284 16.0068C133.717 16.0068 133.816 16.4295 133.816 26.8669C133.816 34.7067 133.961 36.8372 134.578 38.0336C136.449 41.6586 143.62 41.8368 147.321 38.3508L148.424 37.3126V39.1586C148.424 40.7259 148.552 40.9504 149.276 40.6493C151.499 39.7233 154.574 38.9473 156.02 38.9473C156.899 38.9473 157.754 38.7276 157.919 38.4592C158.099 38.1668 157.476 37.9682 156.365 37.9638C155.345 37.9594 154.241 37.7846 153.912 37.5747C153.473 37.2956 153.277 34.2542 153.181 26.2339L153.05 15.2746L148.956 15.1316C146.566 15.0482 144.651 15.2005 144.355 15.4977C144.002 15.8511 144.469 16.0068 145.883 16.0068C148.539 16.0068 148.619 16.3538 148.322 26.6751C148.055 35.9299 147.57 37.5625 144.735 38.7501C142.667 39.6164 140.92 39.2235 139.651 37.6065C138.756 36.4648 138.685 35.6048 138.681 25.8248L138.677 15.2746L134.299 15.2219C131.89 15.1931 129.92 15.3576 129.92 15.588ZM75.8437 15.9926C76.7961 16.5032 78.3051 19.8105 78.3051 21.3856C78.3051 22.29 77.9623 22.352 72.9488 22.352C67.0262 22.352 66.9814 22.3223 68.2694 19.2331C69.307 16.7438 70.891 15.5187 73.0725 15.5187C74.1111 15.5187 75.3582 15.732 75.8437 15.9926Z" fill="#176572"/>
</svg>
